<?xml version="1.0" encoding="utf-8" standalone="no"?>
<!DOCTYPE svg PUBLIC "-//W3C//DTD SVG 1.1//EN"
  "http://www.w3.org/Graphics/SVG/1.1/DTD/svg11.dtd">
<svg xmlns:xlink="http://www.w3.org/1999/xlink" width="720pt" height="432pt" viewBox="0 0 720 432" xmlns="http://www.w3.org/2000/svg" version="1.1">
 <metadata>
  <rdf:RDF xmlns:dc="http://purl.org/dc/elements/1.1/" xmlns:cc="http://creativecommons.org/ns#" xmlns:rdf="http://www.w3.org/1999/02/22-rdf-syntax-ns#">
   <cc:Work>
    <dc:type rdf:resource="http://purl.org/dc/dcmitype/StillImage"/>
    <dc:date>2024-12-12T01:35:56.156901</dc:date>
    <dc:format>image/svg+xml</dc:format>
    <dc:creator>
     <cc:Agent>
      <dc:title>Matplotlib v3.8.4, https://matplotlib.org/</dc:title>
     </cc:Agent>
    </dc:creator>
   </cc:Work>
  </rdf:RDF>
 </metadata>
 <defs>
  <style type="text/css">*{stroke-linejoin: round; stroke-linecap: butt}</style>
 </defs>
 <g id="figure_1">
  <g id="patch_1">
   <path d="M 0 432 
L 720 432 
L 720 0 
L 0 0 
L 0 432 
z
" style="fill: none"/>
  </g>
  <g id="axes_1">
   <g id="patch_2">
    <path d="M 90 384.48 
L 648 384.48 
L 648 51.84 
L 90 51.84 
L 90 384.48 
z
" style="fill: none"/>
   </g>
   <g id="matplotlib.axis_1">
    <g id="xtick_1">
     <g id="line2d_1">
      <defs>
       <path id="m06684296bd" d="M 0 0 
L 0 3.5 
" style="stroke: #000000; stroke-width: 0.8"/>
      </defs>
      <g>
       <use xlink:href="#m06684296bd" x="90" y="384.48" style="stroke: #000000; stroke-width: 0.8"/>
      </g>
     </g>
     <g id="text_1">
      <!-- −10.0 -->
      <g transform="translate(74.677344 399.078438) scale(0.1 -0.1)">
       <defs>
        <path id="DejaVuSans-2212" d="M 678 2272 
L 4684 2272 
L 4684 1741 
L 678 1741 
L 678 2272 
z
" transform="scale(0.015625)"/>
        <path id="DejaVuSans-31" d="M 794 531 
L 1825 531 
L 1825 4091 
L 703 3866 
L 703 4441 
L 1819 4666 
L 2450 4666 
L 2450 531 
L 3481 531 
L 3481 0 
L 794 0 
L 794 531 
z
" transform="scale(0.015625)"/>
        <path id="DejaVuSans-30" d="M 2034 4250 
Q 1547 4250 1301 3770 
Q 1056 3291 1056 2328 
Q 1056 1369 1301 889 
Q 1547 409 2034 409 
Q 2525 409 2770 889 
Q 3016 1369 3016 2328 
Q 3016 3291 2770 3770 
Q 2525 4250 2034 4250 
z
M 2034 4750 
Q 2819 4750 3233 4129 
Q 3647 3509 3647 2328 
Q 3647 1150 3233 529 
Q 2819 -91 2034 -91 
Q 1250 -91 836 529 
Q 422 1150 422 2328 
Q 422 3509 836 4129 
Q 1250 4750 2034 4750 
z
" transform="scale(0.015625)"/>
        <path id="DejaVuSans-2e" d="M 684 794 
L 1344 794 
L 1344 0 
L 684 0 
L 684 794 
z
" transform="scale(0.015625)"/>
       </defs>
       <use xlink:href="#DejaVuSans-2212"/>
       <use xlink:href="#DejaVuSans-31" x="83.789062"/>
       <use xlink:href="#DejaVuSans-30" x="147.412109"/>
       <use xlink:href="#DejaVuSans-2e" x="211.035156"/>
       <use xlink:href="#DejaVuSans-30" x="242.822266"/>
      </g>
     </g>
    </g>
    <g id="xtick_2">
     <g id="line2d_2">
      <g>
       <use xlink:href="#m06684296bd" x="159.75" y="384.48" style="stroke: #000000; stroke-width: 0.8"/>
      </g>
     </g>
     <g id="text_2">
      <!-- −7.5 -->
      <g transform="translate(147.608594 399.078438) scale(0.1 -0.1)">
       <defs>
        <path id="DejaVuSans-37" d="M 525 4666 
L 3525 4666 
L 3525 4397 
L 1831 0 
L 1172 0 
L 2766 4134 
L 525 4134 
L 525 4666 
z
" transform="scale(0.015625)"/>
        <path id="DejaVuSans-35" d="M 691 4666 
L 3169 4666 
L 3169 4134 
L 1269 4134 
L 1269 2991 
Q 1406 3038 1543 3061 
Q 1681 3084 1819 3084 
Q 2600 3084 3056 2656 
Q 3513 2228 3513 1497 
Q 3513 744 3044 326 
Q 2575 -91 1722 -91 
Q 1428 -91 1123 -41 
Q 819 9 494 109 
L 494 744 
Q 775 591 1075 516 
Q 1375 441 1709 441 
Q 2250 441 2565 725 
Q 2881 1009 2881 1497 
Q 2881 1984 2565 2268 
Q 2250 2553 1709 2553 
Q 1456 2553 1204 2497 
Q 953 2441 691 2322 
L 691 4666 
z
" transform="scale(0.015625)"/>
       </defs>
       <use xlink:href="#DejaVuSans-2212"/>
       <use xlink:href="#DejaVuSans-37" x="83.789062"/>
       <use xlink:href="#DejaVuSans-2e" x="147.412109"/>
       <use xlink:href="#DejaVuSans-35" x="179.199219"/>
      </g>
     </g>
    </g>
    <g id="xtick_3">
     <g id="line2d_3">
      <g>
       <use xlink:href="#m06684296bd" x="229.5" y="384.48" style="stroke: #000000; stroke-width: 0.8"/>
      </g>
     </g>
     <g id="text_3">
      <!-- −5.0 -->
      <g transform="translate(217.358594 399.078438) scale(0.1 -0.1)">
       <use xlink:href="#DejaVuSans-2212"/>
       <use xlink:href="#DejaVuSans-35" x="83.789062"/>
       <use xlink:href="#DejaVuSans-2e" x="147.412109"/>
       <use xlink:href="#DejaVuSans-30" x="179.199219"/>
      </g>
     </g>
    </g>
    <g id="xtick_4">
     <g id="line2d_4">
      <g>
       <use xlink:href="#m06684296bd" x="299.25" y="384.48" style="stroke: #000000; stroke-width: 0.8"/>
      </g>
     </g>
     <g id="text_4">
      <!-- −2.5 -->
      <g transform="translate(287.108594 399.078438) scale(0.1 -0.1)">
       <defs>
        <path id="DejaVuSans-32" d="M 1228 531 
L 3431 531 
L 3431 0 
L 469 0 
L 469 531 
Q 828 903 1448 1529 
Q 2069 2156 2228 2338 
Q 2531 2678 2651 2914 
Q 2772 3150 2772 3378 
Q 2772 3750 2511 3984 
Q 2250 4219 1831 4219 
Q 1534 4219 1204 4116 
Q 875 4013 500 3803 
L 500 4441 
Q 881 4594 1212 4672 
Q 1544 4750 1819 4750 
Q 2544 4750 2975 4387 
Q 3406 4025 3406 3419 
Q 3406 3131 3298 2873 
Q 3191 2616 2906 2266 
Q 2828 2175 2409 1742 
Q 1991 1309 1228 531 
z
" transform="scale(0.015625)"/>
       </defs>
       <use xlink:href="#DejaVuSans-2212"/>
       <use xlink:href="#DejaVuSans-32" x="83.789062"/>
       <use xlink:href="#DejaVuSans-2e" x="147.412109"/>
       <use xlink:href="#DejaVuSans-35" x="179.199219"/>
      </g>
     </g>
    </g>
    <g id="xtick_5">
     <g id="line2d_5">
      <g>
       <use xlink:href="#m06684296bd" x="369" y="384.48" style="stroke: #000000; stroke-width: 0.8"/>
      </g>
     </g>
     <g id="text_5">
      <!-- 0.0 -->
      <g transform="translate(361.048437 399.078438) scale(0.1 -0.1)">
       <use xlink:href="#DejaVuSans-30"/>
       <use xlink:href="#DejaVuSans-2e" x="63.623047"/>
       <use xlink:href="#DejaVuSans-30" x="95.410156"/>
      </g>
     </g>
    </g>
    <g id="xtick_6">
     <g id="line2d_6">
      <g>
       <use xlink:href="#m06684296bd" x="438.75" y="384.48" style="stroke: #000000; stroke-width: 0.8"/>
      </g>
     </g>
     <g id="text_6">
      <!-- 2.5 -->
      <g transform="translate(430.798437 399.078438) scale(0.1 -0.1)">
       <use xlink:href="#DejaVuSans-32"/>
       <use xlink:href="#DejaVuSans-2e" x="63.623047"/>
       <use xlink:href="#DejaVuSans-35" x="95.410156"/>
      </g>
     </g>
    </g>
    <g id="xtick_7">
     <g id="line2d_7">
      <g>
       <use xlink:href="#m06684296bd" x="508.5" y="384.48" style="stroke: #000000; stroke-width: 0.8"/>
      </g>
     </g>
     <g id="text_7">
      <!-- 5.0 -->
      <g transform="translate(500.548437 399.078438) scale(0.1 -0.1)">
       <use xlink:href="#DejaVuSans-35"/>
       <use xlink:href="#DejaVuSans-2e" x="63.623047"/>
       <use xlink:href="#DejaVuSans-30" x="95.410156"/>
      </g>
     </g>
    </g>
    <g id="xtick_8">
     <g id="line2d_8">
      <g>
       <use xlink:href="#m06684296bd" x="578.25" y="384.48" style="stroke: #000000; stroke-width: 0.8"/>
      </g>
     </g>
     <g id="text_8">
      <!-- 7.5 -->
      <g transform="translate(570.298437 399.078438) scale(0.1 -0.1)">
       <use xlink:href="#DejaVuSans-37"/>
       <use xlink:href="#DejaVuSans-2e" x="63.623047"/>
       <use xlink:href="#DejaVuSans-35" x="95.410156"/>
      </g>
     </g>
    </g>
    <g id="xtick_9">
     <g id="line2d_9">
      <g>
       <use xlink:href="#m06684296bd" x="648" y="384.48" style="stroke: #000000; stroke-width: 0.8"/>
      </g>
     </g>
     <g id="text_9">
      <!-- 10.0 -->
      <g transform="translate(636.867188 399.078438) scale(0.1 -0.1)">
       <use xlink:href="#DejaVuSans-31"/>
       <use xlink:href="#DejaVuSans-30" x="63.623047"/>
       <use xlink:href="#DejaVuSans-2e" x="127.246094"/>
       <use xlink:href="#DejaVuSans-30" x="159.033203"/>
      </g>
     </g>
    </g>
   </g>
   <g id="matplotlib.axis_2">
    <g id="ytick_1">
     <g id="line2d_10">
      <defs>
       <path id="m766677ea59" d="M 0 0 
L -3.5 0 
" style="stroke: #000000; stroke-width: 0.8"/>
      </defs>
      <g>
       <use xlink:href="#m766677ea59" x="90" y="384.48" style="stroke: #000000; stroke-width: 0.8"/>
      </g>
     </g>
     <g id="text_10">
      <!-- −0.50 -->
      <g transform="translate(52.354687 388.279219) scale(0.1 -0.1)">
       <use xlink:href="#DejaVuSans-2212"/>
       <use xlink:href="#DejaVuSans-30" x="83.789062"/>
       <use xlink:href="#DejaVuSans-2e" x="147.412109"/>
       <use xlink:href="#DejaVuSans-35" x="179.199219"/>
       <use xlink:href="#DejaVuSans-30" x="242.822266"/>
      </g>
     </g>
    </g>
    <g id="ytick_2">
     <g id="line2d_11">
      <g>
       <use xlink:href="#m766677ea59" x="90" y="342.9" style="stroke: #000000; stroke-width: 0.8"/>
      </g>
     </g>
     <g id="text_11">
      <!-- −0.25 -->
      <g transform="translate(52.354687 346.699219) scale(0.1 -0.1)">
       <use xlink:href="#DejaVuSans-2212"/>
       <use xlink:href="#DejaVuSans-30" x="83.789062"/>
       <use xlink:href="#DejaVuSans-2e" x="147.412109"/>
       <use xlink:href="#DejaVuSans-32" x="179.199219"/>
       <use xlink:href="#DejaVuSans-35" x="242.822266"/>
      </g>
     </g>
    </g>
    <g id="ytick_3">
     <g id="line2d_12">
      <g>
       <use xlink:href="#m766677ea59" x="90" y="301.32" style="stroke: #000000; stroke-width: 0.8"/>
      </g>
     </g>
     <g id="text_12">
      <!-- 0.00 -->
      <g transform="translate(60.734375 305.119219) scale(0.1 -0.1)">
       <use xlink:href="#DejaVuSans-30"/>
       <use xlink:href="#DejaVuSans-2e" x="63.623047"/>
       <use xlink:href="#DejaVuSans-30" x="95.410156"/>
       <use xlink:href="#DejaVuSans-30" x="159.033203"/>
      </g>
     </g>
    </g>
    <g id="ytick_4">
     <g id="line2d_13">
      <g>
       <use xlink:href="#m766677ea59" x="90" y="259.74" style="stroke: #000000; stroke-width: 0.8"/>
      </g>
     </g>
     <g id="text_13">
      <!-- 0.25 -->
      <g transform="translate(60.734375 263.539219) scale(0.1 -0.1)">
       <use xlink:href="#DejaVuSans-30"/>
       <use xlink:href="#DejaVuSans-2e" x="63.623047"/>
       <use xlink:href="#DejaVuSans-32" x="95.410156"/>
       <use xlink:href="#DejaVuSans-35" x="159.033203"/>
      </g>
     </g>
    </g>
    <g id="ytick_5">
     <g id="line2d_14">
      <g>
       <use xlink:href="#m766677ea59" x="90" y="218.16" style="stroke: #000000; stroke-width: 0.8"/>
      </g>
     </g>
     <g id="text_14">
      <!-- 0.50 -->
      <g transform="translate(60.734375 221.959219) scale(0.1 -0.1)">
       <use xlink:href="#DejaVuSans-30"/>
       <use xlink:href="#DejaVuSans-2e" x="63.623047"/>
       <use xlink:href="#DejaVuSans-35" x="95.410156"/>
       <use xlink:href="#DejaVuSans-30" x="159.033203"/>
      </g>
     </g>
    </g>
    <g id="ytick_6">
     <g id="line2d_15">
      <g>
       <use xlink:href="#m766677ea59" x="90" y="176.58" style="stroke: #000000; stroke-width: 0.8"/>
      </g>
     </g>
     <g id="text_15">
      <!-- 0.75 -->
      <g transform="translate(60.734375 180.379219) scale(0.1 -0.1)">
       <use xlink:href="#DejaVuSans-30"/>
       <use xlink:href="#DejaVuSans-2e" x="63.623047"/>
       <use xlink:href="#DejaVuSans-37" x="95.410156"/>
       <use xlink:href="#DejaVuSans-35" x="159.033203"/>
      </g>
     </g>
    </g>
    <g id="ytick_7">
     <g id="line2d_16">
      <g>
       <use xlink:href="#m766677ea59" x="90" y="135" style="stroke: #000000; stroke-width: 0.8"/>
      </g>
     </g>
     <g id="text_16">
      <!-- 1.00 -->
      <g transform="translate(60.734375 138.799219) scale(0.1 -0.1)">
       <use xlink:href="#DejaVuSans-31"/>
       <use xlink:href="#DejaVuSans-2e" x="63.623047"/>
       <use xlink:href="#DejaVuSans-30" x="95.410156"/>
       <use xlink:href="#DejaVuSans-30" x="159.033203"/>
      </g>
     </g>
    </g>
    <g id="ytick_8">
     <g id="line2d_17">
      <g>
       <use xlink:href="#m766677ea59" x="90" y="93.42" style="stroke: #000000; stroke-width: 0.8"/>
      </g>
     </g>
     <g id="text_17">
      <!-- 1.25 -->
      <g transform="translate(60.734375 97.219219) scale(0.1 -0.1)">
       <use xlink:href="#DejaVuSans-31"/>
       <use xlink:href="#DejaVuSans-2e" x="63.623047"/>
       <use xlink:href="#DejaVuSans-32" x="95.410156"/>
       <use xlink:href="#DejaVuSans-35" x="159.033203"/>
      </g>
     </g>
    </g>
    <g id="ytick_9">
     <g id="line2d_18">
      <g>
       <use xlink:href="#m766677ea59" x="90" y="51.84" style="stroke: #000000; stroke-width: 0.8"/>
      </g>
     </g>
     <g id="text_18">
      <!-- 1.50 -->
      <g transform="translate(60.734375 55.639219) scale(0.1 -0.1)">
       <use xlink:href="#DejaVuSans-31"/>
       <use xlink:href="#DejaVuSans-2e" x="63.623047"/>
       <use xlink:href="#DejaVuSans-35" x="95.410156"/>
       <use xlink:href="#DejaVuSans-30" x="159.033203"/>
      </g>
     </g>
    </g>
   </g>
   <g id="line2d_19">
    <path d="M 90 131.514801 
L 92.234234 131.314938 
L 93.90991 131.209705 
L 98.378378 130.409804 
L 100.612613 129.923126 
L 101.72973 129.998881 
L 102.846847 130.103597 
L 105.081081 130.063722 
L 107.315315 130.143335 
L 109.54955 129.955245 
L 111.783784 129.935414 
L 112.900901 129.895876 
L 118.486486 129.449383 
L 119.603604 129.594651 
L 124.630631 130.891936 
L 125.747748 130.984075 
L 127.423423 131.321422 
L 130.774775 131.963421 
L 132.45045 132.274189 
L 135.243243 132.503204 
L 137.477477 132.621383 
L 141.387387 132.53098 
L 142.504505 132.386602 
L 144.18018 131.95862 
L 146.414414 131.302026 
L 148.09009 130.875427 
L 150.882883 130.272686 
L 157.027027 128.910533 
L 158.702703 128.69122 
L 159.81982 128.737777 
L 164.846847 129.589616 
L 167.081081 130.246071 
L 168.756757 130.509345 
L 171.54955 130.941634 
L 173.783784 131.714539 
L 177.693694 133.319357 
L 179.927928 133.782802 
L 183.279279 134.302347 
L 186.630631 134.505375 
L 188.864865 134.368302 
L 192.216216 133.851177 
L 195.009009 133.555966 
L 196.126126 133.435325 
L 199.477477 132.532782 
L 201.153153 132.118071 
L 202.828829 131.731637 
L 204.504505 131.128393 
L 205.621622 130.747574 
L 207.297297 130.465212 
L 211.765766 130.16309 
L 214 130.011221 
L 216.792793 130.090019 
L 217.90991 130.160865 
L 221.261261 130.732564 
L 224.054054 131.138478 
L 226.846847 130.885316 
L 230.198198 131.190994 
L 231.315315 131.291978 
L 232.990991 131.355435 
L 236.342342 131.837459 
L 237.459459 131.82619 
L 238.576577 131.6268 
L 242.486486 130.554322 
L 245.279279 130.444906 
L 247.513514 130.450824 
L 249.189189 130.540529 
L 250.864865 130.472335 
L 252.540541 130.795827 
L 254.774775 131.200122 
L 259.243243 131.601705 
L 263.153153 131.689178 
L 265.945946 132.043468 
L 268.738739 131.947485 
L 272.648649 132.517286 
L 274.324324 132.342429 
L 276 132.113289 
L 277.117117 131.943002 
L 278.792793 131.416715 
L 281.585586 130.290914 
L 283.261261 129.555985 
L 284.936937 129.075558 
L 286.612613 128.578372 
L 289.405405 127.667461 
L 293.873874 126.729514 
L 299.459459 125.039279 
L 304.486486 123.899275 
L 307.837838 123.41551 
L 311.189189 122.421427 
L 312.864865 122.019382 
L 314.540541 121.316033 
L 319.567568 118.561773 
L 322.918919 116.141756 
L 324.594595 114.910797 
L 329.063063 112.12448 
L 330.738739 111.080388 
L 336.324324 108.205484 
L 338.558559 107.081235 
L 340.234234 105.904161 
L 343.027027 103.536245 
L 347.495495 99.453107 
L 350.288288 96.549024 
L 354.198198 92.145398 
L 355.873874 90.581445 
L 357.54955 89.255856 
L 359.783784 87.964311 
L 363.135135 86.096974 
L 365.927928 85.061477 
L 368.720721 84.639116 
L 372.630631 84.546403 
L 374.864865 84.786238 
L 377.657658 85.502384 
L 381.009009 87.176308 
L 383.243243 88.895218 
L 384.918919 90.174234 
L 388.27027 92.132111 
L 389.945946 93.218408 
L 392.738739 95.464705 
L 396.09009 98.604012 
L 397.207207 99.607929 
L 399.441441 101.291382 
L 407.261261 107.368725 
L 410.612613 109.617166 
L 414.522523 113.063145 
L 418.990991 117.125326 
L 420.666667 118.363568 
L 422.900901 119.751907 
L 425.693694 121.245785 
L 428.486486 122.992662 
L 430.720721 124.218287 
L 435.189189 126.811894 
L 436.864865 127.464065 
L 440.774775 128.67972 
L 441.891892 128.89666 
L 444.684685 129.06764 
L 450.27027 128.628449 
L 451.945946 128.661883 
L 455.297297 128.529828 
L 456.972973 128.552638 
L 459.765766 129.08444 
L 464.792793 130.043996 
L 472.054054 130.503599 
L 473.72973 130.85338 
L 475.963964 131.703719 
L 477.63964 132.618074 
L 480.990991 134.623981 
L 482.666667 135.455262 
L 487.693694 137.140076 
L 491.603604 138.179464 
L 494.954955 138.466621 
L 500.540541 139.411981 
L 503.333333 140.212833 
L 507.801802 141.135243 
L 509.477477 141.142559 
L 511.711712 140.970399 
L 514.504505 140.976827 
L 521.207207 140.69011 
L 522.882883 140.301017 
L 525.117117 139.72687 
L 527.351351 138.858832 
L 529.027027 138.224793 
L 531.261261 137.513178 
L 532.936937 136.787692 
L 534.612613 136.420795 
L 536.288288 136.08709 
L 539.63964 135.710791 
L 541.873874 135.482634 
L 543.54955 135.310625 
L 547.459459 135.07697 
L 553.045045 133.972543 
L 555.279279 133.442714 
L 556.954955 132.979883 
L 558.072072 132.627194 
L 559.189189 132.416738 
L 560.306306 132.335842 
L 563.099099 131.857303 
L 564.774775 131.592119 
L 568.126126 130.735793 
L 570.36036 130.125443 
L 572.594595 129.822287 
L 574.828829 129.64741 
L 578.738739 130.048262 
L 586 131.973546 
L 592.144144 133.043057 
L 597.171171 133.603032 
L 601.63964 134.479942 
L 603.315315 134.652157 
L 608.900901 135.599542 
L 610.018018 135.677978 
L 611.693694 135.726456 
L 614.486486 135.975605 
L 616.720721 136.235775 
L 618.954955 135.954538 
L 622.306306 135.349013 
L 623.981982 135.259763 
L 628.45045 135.3662 
L 631.243243 135.662098 
L 632.918919 136.065528 
L 635.711712 136.502918 
L 639.621622 136.470924 
L 641.297297 136.238652 
L 644.09009 135.367971 
L 646.324324 134.355302 
L 647.441441 133.969874 
L 648 133.832291 
L 648 133.832291 
" clip-path="url(#p2965a681c2)" style="fill: none; stroke: #ff0000; stroke-opacity: 0.2; stroke-width: 1.5; stroke-linecap: square"/>
   </g>
   <g id="line2d_20">
    <path d="M 90 125.10033 
L 94.468468 127.396408 
L 96.144144 127.907438 
L 101.72973 129.5813 
L 102.846847 130.039827 
L 110.108108 131.658 
L 112.900901 131.701054 
L 114.576577 131.736581 
L 116.252252 131.89324 
L 117.927928 131.99026 
L 119.603604 131.879727 
L 121.279279 132.023513 
L 122.396396 132.147309 
L 125.747748 132.267593 
L 127.423423 132.325801 
L 131.333333 132.110734 
L 135.243243 131.151427 
L 137.477477 130.806306 
L 138.594595 130.817456 
L 147.531532 131.384742 
L 149.765766 131.511837 
L 152 131.7941 
L 153.675676 131.985167 
L 155.351351 132.168745 
L 159.261261 132.123668 
L 162.612613 132.614836 
L 164.288288 133.103959 
L 168.198198 134.56332 
L 171.54955 135.090809 
L 173.225225 135.550086 
L 174.900901 135.786577 
L 179.927928 136.187363 
L 192.774775 135.224177 
L 195.009009 135.421981 
L 202.27027 136.347019 
L 208.972973 136.411231 
L 211.207207 136.683461 
L 215.117117 137.050239 
L 219.585586 136.718288 
L 222.378378 137.227979 
L 224.054054 137.418128 
L 228.522523 138.190331 
L 230.198198 138.204228 
L 232.432432 137.95866 
L 234.666667 137.720488 
L 238.018018 137.056075 
L 240.252252 136.540471 
L 242.486486 135.788427 
L 245.837838 134.823213 
L 253.099099 133.673034 
L 254.774775 133.377534 
L 260.918919 132.962725 
L 264.27027 132.533614 
L 266.504505 132.572501 
L 268.18018 132.452554 
L 271.531532 131.821214 
L 274.882883 130.998418 
L 278.234234 130.424106 
L 281.585586 129.797971 
L 283.81982 129.306945 
L 284.936937 128.9972 
L 287.72973 127.973982 
L 289.405405 127.549892 
L 291.081081 127.147054 
L 295.54955 125.682766 
L 296.666667 125.118495 
L 301.135135 122.300049 
L 302.810811 121.592055 
L 305.045045 120.835658 
L 307.279279 120.132142 
L 308.396396 119.895548 
L 314.540541 118.174718 
L 316.216216 117.520541 
L 317.891892 116.644765 
L 320.126126 115.317061 
L 322.918919 113.298601 
L 324.594595 112.113069 
L 326.828829 110.710887 
L 330.738739 108.666125 
L 333.531532 106.881677 
L 335.207207 105.52369 
L 337.441441 103.301757 
L 339.675676 101.021225 
L 341.351351 99.526284 
L 347.495495 93.22278 
L 350.288288 90.838369 
L 355.315315 87.057747 
L 358.666667 84.392777 
L 360.342342 83.226363 
L 362.018018 82.195513 
L 363.693694 81.652267 
L 365.369369 81.215692 
L 367.603604 80.902321 
L 368.720721 80.72382 
L 369.837838 80.805512 
L 372.630631 81.217246 
L 373.747748 81.431297 
L 374.864865 81.812993 
L 377.657658 83.119156 
L 380.45045 84.847718 
L 382.126126 86.272293 
L 386.036036 89.93613 
L 389.945946 93.347339 
L 391.621622 95.085071 
L 394.972973 99.076002 
L 396.648649 101.09944 
L 400.558559 105.667194 
L 402.234234 107.514443 
L 406.702703 111.614586 
L 410.054054 114.085065 
L 413.405405 116.050174 
L 414.522523 116.541383 
L 417.873874 117.928705 
L 420.108108 118.886112 
L 424.018018 120.572244 
L 430.162162 122.680721 
L 435.747748 123.438046 
L 437.981982 123.832415 
L 440.216216 124.106332 
L 444.126126 124.996739 
L 448.036036 126.239205 
L 449.153153 126.415659 
L 455.855856 128.333598 
L 457.531532 129.254078 
L 459.207207 130.427197 
L 460.882883 131.337016 
L 468.144144 134.720584 
L 469.81982 135.249088 
L 471.495495 135.654856 
L 473.72973 135.944864 
L 475.963964 136.341648 
L 479.315315 137.257281 
L 480.432432 137.5414 
L 482.666667 137.837212 
L 485.459459 138.199882 
L 486.576577 138.369682 
L 488.252252 138.334995 
L 490.486486 138.232469 
L 492.162162 138.337177 
L 493.837838 138.201656 
L 496.630631 137.9112 
L 502.774775 137.767238 
L 508.36036 136.875672 
L 510.594595 136.755933 
L 516.738739 136.728238 
L 520.09009 136.363722 
L 522.882883 135.703333 
L 524 135.402557 
L 525.675676 135.248266 
L 528.468468 135.000058 
L 530.144144 134.70507 
L 537.963964 133.75448 
L 541.315315 133.745679 
L 543.54955 134.03215 
L 548.576577 134.592926 
L 550.252252 134.477323 
L 553.603604 134.161629 
L 557.513514 134.018286 
L 559.189189 133.724602 
L 562.540541 132.632857 
L 566.45045 131.569469 
L 568.126126 131.2725 
L 569.801802 131.185674 
L 573.153153 131.086663 
L 575.945946 131.020733 
L 577.621622 131.151547 
L 582.09009 132.01491 
L 584.324324 132.310723 
L 592.144144 133.651452 
L 596.612613 134.147974 
L 598.288288 134.536015 
L 602.756757 135.805139 
L 604.990991 136.722253 
L 606.108108 137.262997 
L 607.225225 137.564607 
L 610.018018 138.006469 
L 614.486486 138.602393 
L 615.603604 138.509464 
L 617.837838 138.252168 
L 621.747748 138.257015 
L 628.45045 138.839193 
L 630.684685 138.798983 
L 637.387387 138.380587 
L 639.063063 138.048115 
L 640.738739 137.447076 
L 642.414414 136.896565 
L 646.324324 135.732447 
L 647.441441 135.03335 
L 648 134.606275 
L 648 134.606275 
" clip-path="url(#p2965a681c2)" style="fill: none; stroke: #ff0000; stroke-opacity: 0.2; stroke-width: 1.5; stroke-linecap: square"/>
   </g>
   <g id="line2d_21">
    <path d="M 90 131.17254 
L 92.234234 131.033274 
L 95.585586 130.483642 
L 97.261261 130.240771 
L 106.756757 130.60878 
L 107.873874 130.375833 
L 108.990991 130.430496 
L 114.018018 131.222145 
L 115.693694 131.402511 
L 116.810811 131.756751 
L 119.045045 132.52407 
L 121.837838 132.969579 
L 129.099099 134.010077 
L 131.891892 134.111319 
L 137.477477 134.902678 
L 140.27027 135.501449 
L 143.063063 135.890484 
L 144.738739 136.334128 
L 146.414414 136.80936 
L 149.207207 137.340586 
L 151.441441 137.761999 
L 154.234234 137.865207 
L 155.351351 137.720357 
L 161.495495 136.255002 
L 165.963964 136.119738 
L 169.315315 135.60036 
L 170.990991 135.558139 
L 174.900901 134.971143 
L 180.486486 134.382053 
L 182.720721 134.450192 
L 186.072072 134.081799 
L 187.747748 133.826461 
L 193.333333 133.256449 
L 197.243243 133.466065 
L 199.477477 133.584086 
L 202.828829 134.013537 
L 206.738739 133.610197 
L 211.207207 132.277326 
L 213.441441 131.755831 
L 218.468468 130.767923 
L 222.936937 129.720628 
L 224.612613 129.456111 
L 225.72973 129.479507 
L 229.081081 129.946136 
L 235.783784 130.910936 
L 238.018018 130.888453 
L 240.252252 131.207698 
L 242.486486 131.680691 
L 244.720721 131.806055 
L 250.306306 131.457362 
L 254.774775 132.006826 
L 257.009009 132.543834 
L 259.243243 133.14433 
L 260.36036 133.21209 
L 263.711712 133.142136 
L 266.504505 133.46004 
L 268.18018 133.57533 
L 270.414414 133.526 
L 277.117117 133.25989 
L 281.027027 132.752551 
L 282.144144 132.463036 
L 287.171171 130.17632 
L 291.081081 127.70682 
L 292.756757 126.962001 
L 296.108108 125.969628 
L 297.783784 125.504699 
L 299.459459 125.220816 
L 304.486486 124.979276 
L 306.162162 124.735562 
L 308.396396 123.914835 
L 311.189189 122.723887 
L 314.540541 121.632234 
L 319.567568 120.844469 
L 323.477477 119.109118 
L 325.153153 118.086799 
L 327.387387 116.255783 
L 329.063063 114.717492 
L 332.972973 111.693166 
L 334.648649 110.022556 
L 337.441441 106.891516 
L 344.144144 98.136213 
L 348.612613 92.472076 
L 358.108108 82.349937 
L 360.342342 80.554022 
L 361.459459 79.949003 
L 363.693694 79.07852 
L 365.927928 78.507706 
L 368.162162 78.199777 
L 369.837838 78.058099 
L 370.954955 78.205844 
L 373.747748 78.955061 
L 375.981982 79.912849 
L 382.684685 83.64264 
L 384.36036 84.589721 
L 387.153153 86.415812 
L 391.063063 89.300104 
L 393.297297 91.687281 
L 398.324324 97.361762 
L 401.117117 100.706256 
L 406.144144 106.430271 
L 408.936937 109.011038 
L 410.054054 109.79137 
L 415.63964 112.698811 
L 417.873874 113.491018 
L 429.603604 118.172382 
L 434.072072 120.797826 
L 437.423423 122.072763 
L 439.657658 122.618315 
L 441.333333 123.119801 
L 443.009009 123.754049 
L 444.126126 124.240183 
L 446.918919 125.560839 
L 448.594595 126.420126 
L 452.504505 128.412478 
L 454.18018 128.913619 
L 456.972973 129.719129 
L 459.207207 130.441292 
L 462 131.286448 
L 464.234234 131.886063 
L 467.027027 132.890657 
L 471.495495 135.180608 
L 474.288288 136.20285 
L 487.135135 139.869781 
L 488.810811 139.935618 
L 490.486486 139.743791 
L 494.396396 139.111992 
L 497.747748 138.715924 
L 503.333333 138.08266 
L 512.828829 138.831563 
L 513.945946 139.132811 
L 515.621622 139.623862 
L 517.297297 139.736484 
L 520.09009 139.536689 
L 521.207207 139.369063 
L 524.558559 139.172675 
L 527.351351 138.876085 
L 529.027027 138.396568 
L 530.144144 138.0517 
L 531.261261 137.905695 
L 533.495495 137.802804 
L 537.405405 137.325522 
L 540.756757 137.229256 
L 542.990991 137.446501 
L 544.108108 137.513488 
L 547.459459 137.325501 
L 549.135135 137.587416 
L 550.252252 137.703053 
L 552.486486 137.678722 
L 554.162162 137.687372 
L 556.954955 137.286516 
L 559.189189 136.531871 
L 561.423423 135.556717 
L 563.099099 135.089444 
L 564.774775 134.826374 
L 567.567568 134.324725 
L 568.684685 134.261892 
L 570.36036 134.319216 
L 572.036036 134.069563 
L 574.828829 133.513277 
L 577.063063 133.315198 
L 580.414414 132.298878 
L 582.648649 131.561262 
L 584.324324 131.153328 
L 586.558559 130.92585 
L 588.792793 130.852536 
L 590.468468 130.970276 
L 593.261261 131.107303 
L 594.936937 131.209474 
L 598.846847 131.080059 
L 601.081081 131.192774 
L 603.315315 131.41789 
L 607.225225 131.431459 
L 608.900901 131.851346 
L 610.576577 132.314954 
L 613.927928 133.60794 
L 617.279279 135.216509 
L 620.072072 135.949439 
L 622.306306 136.293431 
L 623.423423 136.390784 
L 626.216216 136.453419 
L 627.891892 136.715771 
L 629.567568 136.840586 
L 630.684685 136.759631 
L 641.297297 134.732893 
L 644.648649 134.004659 
L 645.765766 133.849583 
L 647.441441 133.562054 
L 648 133.494739 
L 648 133.494739 
" clip-path="url(#p2965a681c2)" style="fill: none; stroke: #ff0000; stroke-opacity: 0.2; stroke-width: 1.5; stroke-linecap: square"/>
   </g>
   <g id="line2d_22">
    <path d="M 90 129.375738 
L 92.234234 128.901261 
L 94.468468 128.329577 
L 98.378378 128.267819 
L 101.171171 128.685418 
L 107.315315 129.77794 
L 127.423423 130.481305 
L 131.891892 130.326773 
L 134.126126 130.646714 
L 137.477477 130.675513 
L 141.387387 130.49952 
L 143.063063 130.755585 
L 144.738739 131.031432 
L 145.855856 131.139165 
L 146.972973 131.326538 
L 148.648649 131.814205 
L 154.792793 134.158694 
L 157.585586 134.911187 
L 162.054054 135.88606 
L 163.72973 136.080686 
L 165.405405 136.648095 
L 166.522523 137.154994 
L 169.315315 137.95643 
L 170.432432 138.098259 
L 172.666667 138.125313 
L 173.783784 138.194138 
L 176.576577 138.075763 
L 181.045045 137.575653 
L 182.162162 137.45695 
L 185.513514 136.866668 
L 189.981982 135.431569 
L 191.099099 135.024776 
L 193.891892 134.51748 
L 195.009009 134.422252 
L 197.243243 134.295215 
L 203.387387 133.343992 
L 206.738739 132.310736 
L 210.09009 130.746035 
L 211.207207 130.503484 
L 217.351351 130.217423 
L 220.702703 130.655559 
L 223.495495 131.377092 
L 226.288288 132.527014 
L 227.963964 133.232261 
L 229.63964 133.648988 
L 231.315315 134.007279 
L 232.990991 134.318217 
L 234.108108 134.501562 
L 236.900901 134.445287 
L 238.018018 134.337362 
L 240.810811 134.504864 
L 243.045045 134.877472 
L 244.720721 135.281166 
L 247.513514 135.515691 
L 248.630631 135.667295 
L 249.747748 135.662895 
L 252.540541 135.025513 
L 257.009009 133.347517 
L 258.684685 133.01668 
L 263.153153 132.429272 
L 265.387387 131.74 
L 269.297297 130.466844 
L 273.765766 129.410415 
L 275.441441 129.165376 
L 279.90991 128.546957 
L 284.936937 127.706294 
L 286.612613 127.680778 
L 288.288288 127.672833 
L 291.63964 127.121505 
L 293.873874 127.1755 
L 301.693694 126.550048 
L 302.810811 126.54758 
L 305.045045 126.234354 
L 307.837838 125.430937 
L 310.072072 124.565598 
L 313.423423 122.814692 
L 314.540541 122.088391 
L 316.774775 120.379081 
L 319.567568 117.563325 
L 325.711712 111.145045 
L 330.18018 107.725564 
L 332.414414 105.891556 
L 334.648649 104.13328 
L 342.468468 97.493977 
L 345.261261 95.455847 
L 349.72973 92.49256 
L 352.522523 90.23553 
L 354.198198 88.967715 
L 356.432432 86.898028 
L 358.666667 84.790998 
L 360.342342 83.443614 
L 362.018018 82.439274 
L 363.693694 81.608714 
L 366.486486 80.705016 
L 368.162162 80.545509 
L 372.072072 80.766734 
L 373.747748 80.884778 
L 375.981982 81.11345 
L 377.099099 81.439763 
L 379.891892 82.669116 
L 381.009009 83.259504 
L 383.801802 85.205449 
L 388.27027 89.457839 
L 390.504505 91.6753 
L 396.09009 98.174016 
L 398.324324 100.648634 
L 403.351351 106.979417 
L 405.027027 108.52554 
L 406.702703 110.048953 
L 411.72973 115.109974 
L 413.405405 116.726458 
L 416.198198 119.268379 
L 420.108108 122.390748 
L 422.900901 124.18946 
L 426.810811 125.795188 
L 429.045045 126.36067 
L 431.279279 126.643198 
L 434.072072 126.685235 
L 437.423423 127.165614 
L 445.801802 126.581488 
L 446.918919 126.876749 
L 451.945946 128.387331 
L 453.621622 128.839876 
L 455.855856 129.70243 
L 459.207207 130.490805 
L 462.558559 131.017491 
L 464.234234 131.373429 
L 465.90991 131.738643 
L 468.702703 132.496587 
L 471.495495 133.598216 
L 473.72973 134.338803 
L 474.846847 134.536403 
L 477.081081 134.65492 
L 479.315315 135.400353 
L 482.666667 136.545716 
L 484.900901 137.109511 
L 486.576577 137.278539 
L 487.693694 137.266012 
L 488.810811 137.025972 
L 489.927928 136.811908 
L 491.603604 136.690635 
L 492.720721 136.425681 
L 502.216216 133.39566 
L 503.891892 133.08443 
L 505.567568 132.808072 
L 510.036036 131.765942 
L 511.153153 131.621146 
L 512.27027 131.660477 
L 517.297297 132.402496 
L 518.414414 132.513299 
L 520.09009 132.386223 
L 522.882883 132.293075 
L 526.234234 132.470638 
L 529.027027 133.137383 
L 531.261261 133.700263 
L 534.612613 134.419085 
L 536.288288 134.989769 
L 537.963964 135.715042 
L 539.63964 136.441502 
L 540.756757 136.964793 
L 542.432432 137.816076 
L 544.108108 138.366668 
L 546.900901 138.628715 
L 559.747748 138.354948 
L 563.099099 138.001413 
L 570.36036 137.560081 
L 573.153153 137.743571 
L 575.387387 137.560814 
L 577.621622 137.122902 
L 578.738739 136.758867 
L 580.414414 136.177574 
L 586 134.804224 
L 587.675676 134.448675 
L 592.702703 133.44683 
L 596.054054 132.57101 
L 597.171171 132.151008 
L 600.522523 131.564392 
L 604.990991 131.566189 
L 607.783784 131.693932 
L 609.459459 132.018369 
L 612.810811 133.050268 
L 613.927928 133.33742 
L 615.045045 133.682235 
L 616.162162 133.732178 
L 619.513514 133.53154 
L 621.189189 133.806143 
L 623.981982 133.973463 
L 629.567568 134.440992 
L 632.918919 133.646528 
L 634.594595 133.323995 
L 635.711712 133.063536 
L 637.387387 132.546306 
L 640.18018 132.008472 
L 642.414414 131.688512 
L 646.882883 130.726964 
L 648 130.766574 
L 648 130.766574 
" clip-path="url(#p2965a681c2)" style="fill: none; stroke: #ff0000; stroke-opacity: 0.2; stroke-width: 1.5; stroke-linecap: square"/>
   </g>
   <g id="line2d_23">
    <path d="M 90 129.593746 
L 93.351351 129.096804 
L 95.585586 128.466107 
L 97.261261 127.745349 
L 100.054054 126.785506 
L 103.405405 126.170428 
L 105.081081 126.274176 
L 106.198198 126.644709 
L 108.432432 127.506545 
L 109.54955 127.782964 
L 110.666667 128.00915 
L 112.342342 128.587193 
L 114.018018 129.483682 
L 115.693694 130.371573 
L 117.927928 131.194054 
L 120.720721 132.159361 
L 124.630631 133.86922 
L 126.864865 134.322823 
L 128.540541 134.699983 
L 130.216216 135.286062 
L 133.567568 136.467656 
L 134.684685 136.715896 
L 135.801802 136.710359 
L 137.477477 136.570922 
L 141.945946 135.302665 
L 145.855856 133.930379 
L 150.324324 132.557557 
L 152.558559 132.350643 
L 153.675676 132.365367 
L 154.792793 132.45181 
L 159.261261 132.505824 
L 160.936937 132.286004 
L 163.171171 131.862336 
L 168.756757 130.949361 
L 172.666667 130.895921 
L 176.018018 131.279862 
L 177.693694 131.429501 
L 179.369369 131.600682 
L 181.045045 131.743702 
L 182.720721 131.768116 
L 184.954955 132.127023 
L 186.072072 132.34745 
L 189.423423 133.19625 
L 193.333333 134.664399 
L 195.567568 135.211329 
L 197.243243 135.285406 
L 200.036036 135.123638 
L 202.27027 134.593069 
L 206.18018 133.328512 
L 209.531532 131.763383 
L 212.324324 130.567222 
L 215.117117 129.545655 
L 216.792793 128.849603 
L 217.90991 128.639907 
L 220.144144 128.54351 
L 222.378378 128.812634 
L 226.846847 129.794105 
L 228.522523 130.081661 
L 229.63964 130.2579 
L 231.315315 130.558493 
L 232.990991 130.990707 
L 236.900901 131.643842 
L 238.018018 132.125166 
L 240.810811 133.502729 
L 241.927928 133.868735 
L 246.954955 134.773726 
L 249.747748 135.018021 
L 250.864865 134.952449 
L 253.657658 135.029244 
L 255.891892 134.964934 
L 257.009009 134.890831 
L 259.801802 135.210386 
L 262.594595 135.801504 
L 270.414414 135.353195 
L 273.765766 135.517163 
L 276.558559 135.93964 
L 278.234234 135.778356 
L 282.702703 135.222717 
L 284.936937 134.638968 
L 287.72973 133.825084 
L 289.405405 133.157743 
L 291.63964 131.96406 
L 293.315315 130.904342 
L 298.342342 128.705482 
L 300.576577 127.512196 
L 302.252252 126.942873 
L 303.369369 126.520448 
L 305.045045 125.802873 
L 306.720721 125.150566 
L 308.954955 124.101561 
L 312.306306 122.413723 
L 313.423423 122.079268 
L 315.099099 121.603862 
L 316.774775 120.855957 
L 320.126126 118.984898 
L 321.801802 118.18717 
L 323.477477 116.98356 
L 329.063063 112.652632 
L 331.297297 110.923446 
L 335.765766 106.759579 
L 339.117117 103.323717 
L 343.027027 98.884559 
L 345.81982 95.684344 
L 349.72973 91.570082 
L 352.522523 88.180654 
L 353.63964 87.073054 
L 355.315315 85.757368 
L 358.108108 83.958744 
L 360.342342 82.561669 
L 363.693694 80.588465 
L 364.810811 80.275511 
L 367.045045 79.880755 
L 368.720721 79.546714 
L 370.396396 79.48257 
L 372.630631 79.7523 
L 374.306306 80.286996 
L 375.981982 80.824904 
L 377.099099 81.229864 
L 378.216216 81.734739 
L 379.891892 82.940403 
L 383.801802 86.179742 
L 386.036036 87.933795 
L 389.387387 91.018174 
L 391.063063 92.330509 
L 394.972973 95.189057 
L 398.324324 98.37847 
L 401.675676 101.205788 
L 403.90991 102.787773 
L 410.612613 107.300173 
L 413.405405 109.889804 
L 415.081081 111.357025 
L 416.756757 112.518445 
L 429.045045 119.31997 
L 430.720721 119.958305 
L 433.513514 121.423729 
L 437.423423 123.687379 
L 439.099099 124.323803 
L 442.45045 125.947344 
L 445.243243 127.628443 
L 448.036036 129.309881 
L 449.711712 130.136433 
L 451.387387 130.757206 
L 453.063063 131.197253 
L 454.18018 131.472652 
L 456.414414 132.139865 
L 462.558559 133.506172 
L 465.90991 133.635654 
L 467.027027 133.808058 
L 469.81982 133.985202 
L 473.171171 133.828446 
L 480.432432 132.72483 
L 482.108108 132.709272 
L 483.783784 132.857651 
L 485.459459 133.019774 
L 487.693694 133.481726 
L 488.810811 133.885545 
L 497.189189 137.355426 
L 498.864865 137.593963 
L 503.891892 137.786794 
L 506.684685 137.307637 
L 508.36036 137.020833 
L 510.594595 137.042467 
L 511.711712 137.0031 
L 513.945946 136.508603 
L 516.18018 136.263165 
L 518.414414 136.260615 
L 520.648649 136.490582 
L 522.324324 136.606278 
L 525.117117 136.550902 
L 528.468468 135.855701 
L 534.054054 134.080001 
L 535.72973 133.965802 
L 537.405405 133.809334 
L 539.081081 133.531675 
L 540.198198 133.595845 
L 541.873874 133.875466 
L 546.900901 135.053234 
L 550.252252 135.407089 
L 551.927928 135.689171 
L 560.864865 136.003427 
L 562.540541 135.826453 
L 566.45045 136.264995 
L 568.684685 136.521418 
L 570.918919 136.28966 
L 572.036036 136.107012 
L 576.504505 135.955075 
L 577.621622 135.907238 
L 583.207207 135.304728 
L 587.675676 134.370834 
L 591.027027 133.985372 
L 593.81982 134.009994 
L 602.198198 134.910053 
L 604.990991 134.875166 
L 609.459459 134.894918 
L 618.396396 135.330506 
L 621.747748 134.771699 
L 626.774775 133.348899 
L 628.45045 132.583104 
L 630.126126 131.755433 
L 632.36036 130.731381 
L 634.036036 130.071492 
L 636.27027 128.987868 
L 639.063063 127.621838 
L 640.18018 127.126544 
L 642.972973 126.269058 
L 648 125.537273 
L 648 125.537273 
" clip-path="url(#p2965a681c2)" style="fill: none; stroke: #ff0000; stroke-opacity: 0.2; stroke-width: 1.5; stroke-linecap: square"/>
   </g>
   <g id="line2d_24">
    <path d="M 90 127.287196 
L 92.234234 127.500719 
L 96.702703 128.616914 
L 99.495495 128.824666 
L 101.171171 128.969108 
L 102.846847 129.471482 
L 106.198198 130.555629 
L 109.54955 131.172866 
L 111.225225 131.204972 
L 113.459459 131.179666 
L 116.810811 131.291251 
L 117.927928 131.213248 
L 125.747748 130.027092 
L 128.540541 130.161408 
L 131.333333 129.888247 
L 135.801802 129.690793 
L 136.918919 129.730492 
L 139.153153 130.109707 
L 142.504505 130.631872 
L 145.855856 131.509363 
L 149.207207 131.904192 
L 152 132.639777 
L 153.675676 133.424849 
L 156.468468 134.774627 
L 158.702703 135.441044 
L 159.81982 135.704588 
L 161.495495 135.775173 
L 165.963964 135.498716 
L 169.873874 135.679918 
L 172.108108 135.743519 
L 174.900901 136.109713 
L 177.135135 136.22254 
L 178.252252 136.117166 
L 183.837838 134.927403 
L 186.072072 134.725547 
L 188.864865 134.331201 
L 191.099099 133.963212 
L 194.45045 133.845866 
L 197.801802 133.338726 
L 200.594595 132.972385 
L 202.27027 132.655564 
L 203.387387 132.652874 
L 206.18018 132.9906 
L 207.855856 133.509398 
L 209.531532 133.956249 
L 214.558559 135.507008 
L 220.702703 136.953766 
L 222.378378 136.938129 
L 225.72973 136.688797 
L 227.963964 136.123345 
L 229.63964 135.398924 
L 232.990991 134.18671 
L 234.108108 133.924934 
L 238.576577 133.592089 
L 244.720721 133.82477 
L 246.396396 134.061191 
L 248.630631 134.326439 
L 250.306306 134.26743 
L 251.423423 134.166153 
L 255.891892 133.890282 
L 257.567568 133.74615 
L 259.801802 133.622429 
L 261.477477 133.423807 
L 263.711712 132.932677 
L 265.387387 132.608154 
L 267.063063 132.218253 
L 270.414414 131.517175 
L 275.441441 129.978402 
L 277.675676 129.620758 
L 287.171171 129.305705 
L 288.288288 129.297761 
L 289.405405 129.08601 
L 295.54955 127.198266 
L 296.666667 126.813673 
L 298.900901 126.265416 
L 300.576577 125.889238 
L 308.954955 123.718415 
L 311.189189 123.217264 
L 313.981982 122.355969 
L 315.099099 121.959807 
L 316.774775 121.041734 
L 319.009009 120.062336 
L 320.126126 119.437076 
L 322.36036 117.884194 
L 325.153153 115.55696 
L 327.945946 112.954748 
L 338 102.632385 
L 339.117117 101.365235 
L 340.792793 99.926248 
L 343.585586 97.638807 
L 348.054054 93.599187 
L 351.963964 90.77283 
L 354.198198 88.930197 
L 356.990991 86.98998 
L 359.783784 85.337883 
L 361.459459 84.475335 
L 362.576577 84.060476 
L 365.927928 83.081547 
L 368.162162 82.311987 
L 370.396396 82.112584 
L 371.513514 82.157167 
L 374.864865 82.883143 
L 375.981982 83.233247 
L 379.891892 85.107764 
L 381.009009 85.748836 
L 382.684685 86.495884 
L 386.036036 88.355619 
L 387.711712 89.435148 
L 389.387387 90.419838 
L 391.621622 91.679198 
L 393.297297 92.685648 
L 394.972973 93.896939 
L 400.558559 98.676556 
L 402.234234 100.463249 
L 405.027027 103.732834 
L 407.81982 107.294888 
L 413.405405 114.192891 
L 415.63964 116.578035 
L 416.756757 117.529126 
L 418.990991 119.077632 
L 422.342342 121.015331 
L 424.576577 122.453273 
L 427.927928 124.289528 
L 429.603604 125.460807 
L 431.837838 127.003125 
L 432.954955 127.593103 
L 434.072072 127.980561 
L 437.981982 128.806994 
L 439.099099 129.173767 
L 441.891892 129.464882 
L 443.009009 129.468925 
L 444.684685 129.366132 
L 448.594595 129.454554 
L 450.828829 129.28233 
L 454.738739 129.279118 
L 456.972973 129.606669 
L 459.207207 129.794648 
L 463.675676 130.778102 
L 467.027027 131.695915 
L 471.495495 132.533153 
L 477.081081 133.537887 
L 481.54955 133.749253 
L 485.459459 133.944094 
L 487.693694 134.040222 
L 488.810811 134.215797 
L 493.279279 135.58984 
L 494.396396 135.798042 
L 497.189189 136.096103 
L 499.423423 136.636242 
L 501.099099 136.916007 
L 503.333333 137.051453 
L 506.126126 137.437719 
L 507.801802 137.706229 
L 510.594595 137.645267 
L 512.27027 137.711019 
L 515.621622 137.654317 
L 516.738739 137.52805 
L 518.972973 137.130885 
L 520.648649 137.003912 
L 523.441441 136.90569 
L 524.558559 136.775946 
L 525.675676 136.360232 
L 528.468468 135.275358 
L 531.81982 134.414882 
L 534.612613 133.906596 
L 539.081081 133.255918 
L 541.315315 133.272383 
L 544.666667 133.243337 
L 546.900901 133.250933 
L 551.369369 133.834459 
L 553.045045 133.931376 
L 556.954955 133.787252 
L 559.189189 133.689582 
L 560.306306 133.455853 
L 561.981982 133.062999 
L 563.657658 132.957929 
L 566.45045 132.969375 
L 568.126126 133.218608 
L 572.036036 134.129708 
L 575.945946 135.158232 
L 577.063063 135.244214 
L 579.855856 134.777707 
L 582.09009 134.343019 
L 584.882883 133.891058 
L 586.558559 133.806141 
L 588.234234 133.87589 
L 591.585586 133.720754 
L 594.378378 133.93227 
L 598.846847 134.63476 
L 601.63964 135.219795 
L 603.873874 135.734196 
L 604.990991 135.895902 
L 606.108108 135.901027 
L 618.954955 136.804438 
L 620.630631 137.08304 
L 622.864865 137.118206 
L 624.540541 136.960049 
L 627.333333 136.351552 
L 630.126126 135.618578 
L 632.918919 134.461894 
L 636.828829 132.505844 
L 638.504505 131.380779 
L 639.621622 130.695754 
L 641.297297 129.921062 
L 642.414414 129.310063 
L 644.09009 128.51403 
L 648 126.353474 
L 648 126.353474 
" clip-path="url(#p2965a681c2)" style="fill: none; stroke: #ff0000; stroke-opacity: 0.2; stroke-width: 1.5; stroke-linecap: square"/>
   </g>
   <g id="line2d_25">
    <path d="M 90 129.094658 
L 91.117117 129.131194 
L 94.468468 129.517851 
L 96.144144 129.974112 
L 98.378378 130.645039 
L 102.288288 131.73211 
L 103.405405 132.228485 
L 106.756757 134.190962 
L 108.432432 134.978294 
L 109.54955 135.166671 
L 111.225225 135.196076 
L 114.576577 134.965656 
L 116.252252 134.576822 
L 117.927928 133.859813 
L 120.162162 132.878805 
L 121.837838 132.461443 
L 123.513514 132.034718 
L 125.747748 131.304441 
L 127.981982 130.539944 
L 129.657658 129.891337 
L 130.774775 129.595902 
L 135.243243 129.161122 
L 138.036036 129.43312 
L 140.27027 129.566815 
L 142.504505 129.386023 
L 146.414414 128.588037 
L 148.648649 127.797745 
L 150.882883 127.464317 
L 152.558559 127.623863 
L 154.234234 127.836917 
L 157.585586 128.379543 
L 159.261261 128.603914 
L 161.495495 128.963572 
L 167.63964 129.418079 
L 171.54955 129.188863 
L 173.225225 129.4659 
L 176.018018 130.101321 
L 177.693694 130.317096 
L 179.369369 130.51292 
L 181.603604 130.425757 
L 182.720721 130.402959 
L 184.954955 130.504006 
L 188.306306 130.618808 
L 191.657658 130.701795 
L 195.567568 130.612427 
L 197.243243 130.585376 
L 198.36036 130.481234 
L 199.477477 130.565821 
L 202.828829 131.153573 
L 205.063063 131.822767 
L 206.738739 132.522457 
L 208.414414 133.238203 
L 210.09009 133.786613 
L 220.702703 136.11352 
L 222.378378 136.565195 
L 224.612613 136.864825 
L 225.72973 137.002085 
L 227.963964 137.066077 
L 236.342342 138.180077 
L 238.018018 138.16556 
L 241.927928 138.745567 
L 247.513514 138.887075 
L 248.630631 138.656989 
L 249.747748 138.145346 
L 251.423423 137.204298 
L 255.333333 134.44461 
L 257.009009 133.860795 
L 259.243243 133.261246 
L 265.387387 131.898601 
L 268.18018 130.983097 
L 269.297297 130.726788 
L 270.414414 130.651414 
L 272.09009 130.754699 
L 273.765766 130.978997 
L 278.234234 132.211351 
L 279.351351 132.63909 
L 281.027027 132.955233 
L 282.144144 133.061715 
L 284.936937 132.942826 
L 287.72973 132.602732 
L 289.963964 132.160515 
L 291.63964 131.948574 
L 294.990991 131.115977 
L 296.666667 130.45646 
L 299.459459 128.783017 
L 303.927928 125.693347 
L 305.603604 124.48219 
L 310.072072 121.532108 
L 311.189189 121.053207 
L 312.306306 120.77024 
L 316.774775 119.964307 
L 319.009009 119.420614 
L 320.684685 118.685674 
L 323.477477 117.128077 
L 327.945946 113.958528 
L 331.297297 111.344667 
L 333.531532 109.738742 
L 336.324324 107.786361 
L 339.675676 104.924769 
L 341.351351 103.191705 
L 346.378378 97.26304 
L 351.405405 90.58894 
L 353.63964 88.253078 
L 355.315315 86.930535 
L 356.990991 85.783129 
L 358.108108 85.135862 
L 363.135135 82.68655 
L 364.810811 82.313798 
L 365.927928 82.182331 
L 370.954955 82.065492 
L 372.630631 82.27639 
L 376.540541 83.273516 
L 378.216216 83.805801 
L 381.009009 85.195825 
L 382.126126 85.842958 
L 383.243243 86.674296 
L 386.036036 89.256639 
L 393.855856 96.931404 
L 397.207207 100.122767 
L 398.882883 101.852968 
L 401.675676 104.577078 
L 405.585586 108.887379 
L 407.261261 110.410806 
L 410.054054 112.495772 
L 411.72973 113.482481 
L 419.54955 116.95453 
L 423.459459 119.541734 
L 425.135135 120.702951 
L 427.927928 122.231542 
L 429.603604 122.826125 
L 432.396396 123.337428 
L 433.513514 123.784961 
L 435.189189 124.503691 
L 437.423423 125.412773 
L 439.657658 126.406949 
L 440.774775 126.583977 
L 443.567568 126.735739 
L 446.36036 126.567789 
L 451.387387 125.854585 
L 452.504505 125.932235 
L 455.297297 126.532252 
L 458.648649 127.869077 
L 464.234234 130.440788 
L 468.144144 131.446965 
L 469.261261 131.689557 
L 473.72973 132.176684 
L 475.963964 132.522405 
L 478.198198 132.736387 
L 479.873874 133.013652 
L 482.108108 133.729736 
L 486.018018 134.83531 
L 489.369369 135.525018 
L 491.045045 136.135059 
L 496.630631 137.664465 
L 498.306306 137.939936 
L 499.423423 137.898657 
L 501.099099 137.889907 
L 502.216216 137.866599 
L 505.009009 138.116663 
L 507.243243 138.143162 
L 510.036036 138.756547 
L 511.711712 139.133828 
L 515.063063 139.28244 
L 518.414414 139.372624 
L 524 139.174751 
L 525.675676 138.916898 
L 526.792793 138.753779 
L 529.027027 138.479117 
L 536.288288 137.034253 
L 544.108108 134.566616 
L 545.783784 134.355829 
L 548.018018 134.431866 
L 553.045045 134.918497 
L 554.162162 134.779195 
L 555.279279 134.613869 
L 561.981982 133.96753 
L 565.891892 133.579962 
L 569.243243 133.490648 
L 572.036036 133.324957 
L 575.945946 132.933578 
L 577.621622 133.309286 
L 582.648649 135.126676 
L 584.882883 135.720027 
L 586 135.906514 
L 588.234234 135.824425 
L 591.027027 135.721922 
L 592.702703 135.637447 
L 594.936937 135.721861 
L 597.72973 136.354346 
L 600.522523 137.124142 
L 604.432432 137.614872 
L 607.225225 137.625518 
L 608.342342 137.74851 
L 609.459459 138.039754 
L 611.135135 138.798259 
L 613.369369 139.773501 
L 614.486486 140.082681 
L 615.603604 140.145637 
L 617.837838 140.069385 
L 621.189189 140.344788 
L 623.423423 139.998656 
L 627.333333 139.083831 
L 628.45045 138.757604 
L 630.126126 138.175576 
L 632.36036 137.424519 
L 635.711712 136.142025 
L 636.828829 135.755775 
L 639.063063 135.265 
L 648 132.274368 
L 648 132.274368 
" clip-path="url(#p2965a681c2)" style="fill: none; stroke: #ff0000; stroke-opacity: 0.2; stroke-width: 1.5; stroke-linecap: square"/>
   </g>
   <g id="line2d_26">
    <path d="M 90 134.522082 
L 93.90991 133.218417 
L 108.432432 130.732094 
L 109.54955 130.60338 
L 112.342342 130.075481 
L 114.576577 129.925255 
L 117.927928 130.20839 
L 119.045045 130.494074 
L 121.837838 131.623216 
L 122.954955 132.081278 
L 124.630631 132.518779 
L 126.864865 132.979617 
L 128.540541 133.451626 
L 130.216216 133.765706 
L 131.891892 133.995093 
L 134.126126 133.907741 
L 138.036036 133.298016 
L 140.828829 133.014868 
L 143.621622 132.078591 
L 144.738739 131.873102 
L 145.855856 131.823468 
L 148.09009 131.822965 
L 149.207207 131.678404 
L 152.558559 130.857856 
L 153.675676 130.627924 
L 154.792793 130.39176 
L 157.027027 130.165404 
L 159.261261 130.122329 
L 162.054054 129.967083 
L 163.72973 129.910239 
L 165.963964 129.875402 
L 167.63964 129.735494 
L 169.873874 129.950886 
L 174.900901 131.255471 
L 176.576577 131.492107 
L 178.252252 131.740253 
L 179.927928 131.861764 
L 182.162162 132.131966 
L 184.396396 132.343025 
L 186.072072 132.094816 
L 187.747748 131.894742 
L 191.657658 131.758906 
L 196.126126 132.217389 
L 197.801802 132.435448 
L 199.477477 132.585747 
L 202.828829 132.49883 
L 206.738739 132.924449 
L 211.765766 133.487305 
L 214.558559 133.636959 
L 216.234234 133.740663 
L 219.585586 133.437373 
L 225.72973 132.120416 
L 227.963964 131.632492 
L 230.198198 131.308803 
L 231.315315 131.311071 
L 232.432432 131.500047 
L 234.108108 131.932441 
L 236.342342 132.380757 
L 237.459459 132.394955 
L 239.693694 132.366833 
L 241.369369 132.453913 
L 243.603604 132.711501 
L 248.630631 133.224839 
L 261.477477 134.825687 
L 262.594595 134.942062 
L 263.711712 134.832849 
L 266.504505 134.255314 
L 269.297297 133.459268 
L 270.972973 132.927728 
L 273.207207 132.296568 
L 275.441441 131.75415 
L 279.351351 130.293733 
L 282.144144 128.958923 
L 283.81982 128.46328 
L 285.495495 128.199415 
L 287.171171 128.165737 
L 288.846847 128.432074 
L 290.522523 128.693419 
L 292.198198 128.626433 
L 293.873874 128.372152 
L 296.108108 127.817394 
L 299.459459 126.937471 
L 303.927928 125.279303 
L 306.720721 124.62212 
L 310.072072 124.300182 
L 311.747748 124.304976 
L 313.423423 124.041211 
L 315.099099 123.494547 
L 316.216216 123.008757 
L 319.009009 121.392297 
L 321.801802 119.499016 
L 326.828829 115.356066 
L 329.063063 113.321995 
L 334.09009 108.764399 
L 336.324324 106.534305 
L 345.261261 97.707489 
L 353.63964 88.801383 
L 356.990991 86.529059 
L 363.135135 83.159015 
L 364.252252 82.857986 
L 367.045045 82.336284 
L 368.720721 82.207665 
L 370.396396 82.117399 
L 374.306306 82.424616 
L 375.981982 82.707298 
L 378.216216 83.648787 
L 379.333333 84.172003 
L 381.567568 85.630936 
L 383.243243 87.115336 
L 386.036036 89.87455 
L 393.855856 97.723408 
L 398.882883 102.03483 
L 401.117117 103.65767 
L 403.351351 105.211138 
L 406.144144 107.57941 
L 407.81982 108.647948 
L 411.171171 110.364042 
L 412.846847 111.519599 
L 414.522523 112.523127 
L 416.756757 114.383667 
L 419.54955 116.681229 
L 424.018018 119.278347 
L 426.252252 120.270288 
L 427.927928 120.694298 
L 429.045045 120.782627 
L 431.837838 120.906335 
L 434.072072 121.174294 
L 437.423423 121.55614 
L 438.540541 121.695912 
L 444.684685 121.880925 
L 448.036036 122.238222 
L 449.711712 122.48607 
L 454.18018 123.139128 
L 455.855856 123.670142 
L 458.09009 124.515845 
L 464.234234 127.020676 
L 465.90991 127.592114 
L 467.585586 128.43169 
L 472.612613 131.019049 
L 474.846847 131.993234 
L 477.081081 133.283635 
L 478.198198 133.823456 
L 480.432432 134.591836 
L 482.108108 135.257391 
L 486.018018 136.384586 
L 487.693694 136.773648 
L 489.927928 137.190539 
L 491.603604 137.24572 
L 492.720721 137.272679 
L 495.513514 136.899672 
L 496.630631 136.593498 
L 498.864865 135.806741 
L 501.099099 134.933529 
L 502.774775 134.534436 
L 505.567568 134.145687 
L 506.684685 134.115785 
L 509.477477 133.633181 
L 511.153153 133.619502 
L 514.504505 134.168664 
L 516.738739 134.30787 
L 517.855856 134.227639 
L 518.972973 134.059735 
L 524 134.277356 
L 525.675676 134.287822 
L 527.90991 134.51276 
L 531.261261 134.255153 
L 536.846847 133.845795 
L 540.198198 133.499789 
L 542.432432 133.092222 
L 545.225225 132.364858 
L 546.342342 132.256825 
L 555.279279 132.644261 
L 556.954955 132.537239 
L 558.630631 132.438371 
L 562.540541 132.675532 
L 564.774775 133.246111 
L 565.891892 133.315737 
L 567.567568 133.27713 
L 577.063063 133.498432 
L 578.738739 133.278064 
L 580.972973 132.688549 
L 586 131.413086 
L 588.234234 130.889569 
L 591.585586 130.464716 
L 593.261261 130.607857 
L 595.495495 131.060478 
L 596.612613 131.431233 
L 597.72973 131.998457 
L 600.522523 133.971887 
L 602.198198 135.128134 
L 603.873874 135.792497 
L 604.990991 136.157564 
L 606.666667 136.371029 
L 609.459459 136.532483 
L 613.369369 136.317489 
L 615.045045 135.967993 
L 618.954955 134.467605 
L 624.540541 133.328636 
L 630.684685 132.674838 
L 632.36036 132.341647 
L 639.063063 131.330759 
L 640.18018 131.043267 
L 643.531532 130.365979 
L 647.441441 130.299714 
L 648 130.350275 
L 648 130.350275 
" clip-path="url(#p2965a681c2)" style="fill: none; stroke: #ff0000; stroke-opacity: 0.2; stroke-width: 1.5; stroke-linecap: square"/>
   </g>
   <g id="line2d_27">
    <path d="M 90 130.620833 
L 93.351351 130.309112 
L 95.027027 130.558453 
L 97.81982 131.218244 
L 99.495495 131.361299 
L 105.081081 130.760077 
L 107.873874 130.553328 
L 110.108108 130.427222 
L 115.135135 130.57565 
L 116.810811 130.658889 
L 118.486486 130.903333 
L 120.720721 131.337537 
L 125.189189 132.069585 
L 127.981982 132.617112 
L 130.216216 132.677452 
L 131.891892 132.364269 
L 134.684685 131.829047 
L 136.918919 131.67257 
L 145.297297 131.603036 
L 151.441441 133.091351 
L 157.585586 134.042015 
L 161.495495 134.152446 
L 163.72973 134.057194 
L 165.405405 134.150331 
L 167.081081 134.243875 
L 170.432432 133.765055 
L 175.459459 132.846154 
L 176.576577 132.839424 
L 178.810811 132.911877 
L 180.486486 132.950822 
L 182.162162 132.813478 
L 184.396396 132.641757 
L 188.306306 132.073472 
L 189.981982 132.096503 
L 191.657658 131.845993 
L 193.333333 131.656814 
L 195.567568 131.158418 
L 197.243243 130.855463 
L 199.477477 130.818033 
L 200.594595 130.924184 
L 202.27027 131.227982 
L 204.504505 131.479698 
L 206.18018 131.726513 
L 208.414414 131.903752 
L 210.09009 132.046513 
L 213.441441 132.437868 
L 217.90991 132.553377 
L 220.702703 132.814244 
L 222.378378 132.780272 
L 225.72973 133.037986 
L 227.405405 133.208803 
L 230.198198 133.853878 
L 232.990991 134.830082 
L 234.666667 135.670149 
L 236.900901 136.55443 
L 240.252252 137.466867 
L 242.486486 137.731843 
L 244.162162 137.639157 
L 246.396396 137.446597 
L 247.513514 137.320946 
L 249.189189 137.385964 
L 250.306306 137.444859 
L 253.657658 137.155396 
L 254.774775 136.904281 
L 255.891892 136.439996 
L 258.684685 135.130856 
L 265.945946 132.230665 
L 272.09009 129.130578 
L 277.675676 126.130779 
L 281.027027 124.807985 
L 282.702703 124.398793 
L 284.936937 124.100394 
L 289.963964 122.962275 
L 292.756757 122.818798 
L 297.783784 122.711199 
L 298.900901 122.574416 
L 300.576577 122.459243 
L 302.252252 122.319788 
L 306.162162 121.655295 
L 308.396396 121.14185 
L 310.072072 120.99613 
L 311.747748 121.120157 
L 313.423423 121.239397 
L 314.540541 121.188382 
L 316.774775 120.787688 
L 318.45045 120.287567 
L 321.243243 118.888566 
L 322.918919 117.688418 
L 325.711712 115.36827 
L 327.387387 113.667566 
L 330.18018 110.698917 
L 334.648649 106.342145 
L 336.324324 104.954174 
L 339.117117 102.755969 
L 340.792793 101.236014 
L 344.144144 98.254919 
L 345.81982 96.530513 
L 349.72973 91.941985 
L 352.522523 89.327393 
L 354.756757 87.069564 
L 356.432432 85.578012 
L 357.54955 84.747793 
L 359.225225 83.820494 
L 361.459459 82.894114 
L 365.927928 81.301341 
L 367.603604 81.207783 
L 369.279279 81.405161 
L 370.396396 81.640155 
L 373.747748 82.990376 
L 378.774775 85.113296 
L 379.891892 85.624412 
L 381.567568 86.623357 
L 384.918919 89.143114 
L 394.972973 97.965862 
L 397.207207 99.609123 
L 399.441441 101.511093 
L 400.558559 102.41438 
L 404.468468 104.959482 
L 410.054054 109.479445 
L 412.288288 111.077124 
L 415.081081 112.733918 
L 416.756757 113.708698 
L 422.342342 117.514847 
L 424.018018 118.414953 
L 427.927928 120.147654 
L 431.279279 121.712347 
L 432.954955 122.524837 
L 434.072072 123.100399 
L 435.747748 123.615248 
L 437.423423 124.033241 
L 442.45045 126.03556 
L 444.126126 126.88746 
L 450.27027 128.851967 
L 451.945946 129.343469 
L 455.855856 130.493465 
L 463.117117 133.721958 
L 464.792793 134.296177 
L 467.585586 135.001286 
L 469.261261 135.33955 
L 473.171171 136.281625 
L 474.846847 136.667157 
L 480.432432 138.254205 
L 481.54955 138.336247 
L 483.225225 138.152452 
L 486.018018 137.566578 
L 489.369369 137.248913 
L 496.630631 138.370841 
L 498.306306 138.453391 
L 499.981982 138.362686 
L 501.099099 138.461948 
L 504.45045 138.927923 
L 508.36036 139.028547 
L 511.153153 139.03265 
L 518.414414 137.068012 
L 520.648649 136.826166 
L 524 136.786934 
L 529.027027 136.806659 
L 536.288288 136.159584 
L 537.405405 135.81432 
L 538.522523 135.484462 
L 542.990991 134.747395 
L 544.666667 134.243718 
L 549.135135 133.018336 
L 551.927928 132.748667 
L 553.603604 132.465688 
L 554.720721 132.290714 
L 559.189189 131.182804 
L 564.216216 130.488615 
L 565.891892 130.718539 
L 568.684685 131.237083 
L 572.036036 131.745696 
L 573.711712 131.889695 
L 575.945946 132.040806 
L 577.621622 132.321318 
L 578.738739 132.610776 
L 579.855856 132.900271 
L 585.441441 133.5259 
L 591.027027 134.462722 
L 593.81982 134.416931 
L 595.495495 134.455862 
L 599.405405 134.736003 
L 602.198198 134.664801 
L 604.990991 134.509415 
L 606.666667 134.638552 
L 608.342342 134.985644 
L 612.810811 136.097305 
L 615.045045 136.283389 
L 618.954955 137.181819 
L 621.189189 137.284467 
L 622.864865 137.56494 
L 624.540541 137.507337 
L 626.216216 137.086255 
L 633.477477 134.293623 
L 635.153153 134.15624 
L 640.738739 133.746503 
L 643.531532 133.038828 
L 647.441441 132.936412 
L 648 132.982822 
L 648 132.982822 
" clip-path="url(#p2965a681c2)" style="fill: none; stroke: #ff0000; stroke-opacity: 0.2; stroke-width: 1.5; stroke-linecap: square"/>
   </g>
   <g id="line2d_28">
    <path d="M 90 126.192688 
L 91.117117 126.168875 
L 94.468468 125.702976 
L 95.585586 125.753496 
L 97.81982 126.21545 
L 101.171171 127.454233 
L 103.405405 128.538675 
L 106.198198 129.699361 
L 107.873874 130.012135 
L 111.783784 130.696761 
L 113.459459 131.138611 
L 115.135135 131.528522 
L 116.810811 131.695719 
L 118.486486 131.74218 
L 120.720721 131.51561 
L 121.837838 131.26021 
L 124.072072 130.395279 
L 126.306306 129.284898 
L 131.333333 127.173504 
L 133.009009 126.609864 
L 134.126126 126.486175 
L 137.477477 126.272364 
L 138.594595 126.237284 
L 140.27027 126.507255 
L 141.387387 126.803433 
L 143.621622 127.671628 
L 149.765766 130.462594 
L 153.117117 131.62579 
L 154.234234 131.901778 
L 155.351351 132.295981 
L 157.027027 132.828851 
L 158.702703 133.277273 
L 163.72973 134.758221 
L 165.405405 135.122867 
L 167.63964 135.322576 
L 169.315315 135.369001 
L 173.225225 135.596057 
L 175.459459 135.466091 
L 176.576577 135.432879 
L 181.045045 135.878245 
L 182.720721 136.055609 
L 184.396396 135.981798 
L 186.072072 135.503008 
L 187.747748 134.951475 
L 189.423423 134.529392 
L 191.657658 133.788634 
L 194.45045 132.449388 
L 195.567568 132.169493 
L 201.153153 131.794547 
L 203.387387 132.060331 
L 204.504505 132.335356 
L 210.09009 134.396329 
L 215.117117 135.917168 
L 216.234234 135.921103 
L 220.144144 135.31661 
L 221.81982 134.884303 
L 225.72973 133.673354 
L 229.081081 133.333516 
L 230.756757 133.350784 
L 231.873874 133.376193 
L 233.54955 133.194624 
L 238.576577 132.349059 
L 240.252252 132.499058 
L 242.486486 132.767025 
L 246.954955 132.565179 
L 249.189189 132.29723 
L 251.423423 132.237173 
L 254.774775 131.511792 
L 255.891892 131.15109 
L 259.243243 130.773956 
L 260.918919 130.845214 
L 262.594595 131.031867 
L 274.324324 129.680668 
L 283.261261 129.375585 
L 294.432432 127.040885 
L 298.342342 126.730238 
L 301.135135 127.088281 
L 302.810811 127.351426 
L 304.486486 127.368695 
L 306.162162 127.243599 
L 307.279279 126.963949 
L 309.513514 126.189962 
L 311.189189 125.408047 
L 312.864865 124.448566 
L 316.216216 121.927142 
L 318.45045 119.832047 
L 321.801802 117.28451 
L 327.387387 112.91423 
L 329.063063 111.45034 
L 332.972973 108.267231 
L 335.765766 105.56347 
L 338.558559 102.786579 
L 343.027027 98.927312 
L 344.144144 98.110292 
L 348.612613 94.026592 
L 353.081081 90.09563 
L 359.225225 85.591805 
L 363.693694 81.923724 
L 365.369369 81.128599 
L 367.045045 80.529142 
L 368.720721 80.20236 
L 372.630631 79.941349 
L 374.864865 80.422773 
L 376.540541 80.995322 
L 378.774775 81.924969 
L 382.684685 84.252619 
L 384.36036 85.634448 
L 387.153153 88.113516 
L 388.828829 89.422615 
L 390.504505 90.722878 
L 392.18018 92.105239 
L 395.531532 94.434107 
L 397.207207 95.881984 
L 398.882883 97.648719 
L 400.558559 99.435413 
L 403.351351 102.681762 
L 405.027027 104.334976 
L 406.702703 105.700823 
L 410.054054 108.209791 
L 412.288288 109.622965 
L 414.522523 111.028377 
L 420.666667 114.654066 
L 421.783784 115.215619 
L 425.693694 117.026495 
L 427.927928 118.319362 
L 432.396396 120.634929 
L 434.630631 121.477895 
L 437.981982 122.335843 
L 439.657658 122.576884 
L 444.126126 122.88062 
L 445.801802 123.083328 
L 448.036036 123.137563 
L 450.828829 123.413296 
L 454.738739 123.463418 
L 457.531532 123.872585 
L 458.648649 124.206669 
L 462.558559 126.046105 
L 467.027027 128.802536 
L 468.702703 129.448331 
L 473.171171 131.02945 
L 479.315315 133.155078 
L 483.225225 135.01478 
L 484.900901 135.583378 
L 487.135135 136.000752 
L 489.369369 136.353974 
L 490.486486 136.407237 
L 491.603604 136.284525 
L 493.837838 135.782342 
L 495.513514 135.561486 
L 496.630631 135.481051 
L 498.864865 135.613243 
L 501.657658 135.432213 
L 505.009009 134.92776 
L 507.243243 134.878558 
L 511.153153 134.891522 
L 517.855856 135.604317 
L 524 135.956563 
L 532.936937 134.981981 
L 536.846847 135.060912 
L 538.522523 135.371882 
L 541.315315 135.827135 
L 542.432432 135.957861 
L 546.342342 136.072376 
L 550.252252 136.214584 
L 551.927928 135.971648 
L 556.954955 134.466968 
L 558.072072 134.382013 
L 566.45045 135.032979 
L 569.243243 134.649545 
L 573.153153 133.450602 
L 575.387387 132.781319 
L 579.297297 131.881435 
L 580.414414 131.717603 
L 582.09009 131.184215 
L 584.324324 130.267664 
L 586.558559 129.409196 
L 588.234234 129.160716 
L 589.351351 129.189669 
L 590.468468 129.396975 
L 592.144144 130.059407 
L 593.261261 130.514394 
L 594.936937 130.835468 
L 597.171171 130.961435 
L 599.963964 130.989176 
L 601.081081 130.903348 
L 603.315315 131.103135 
L 608.900901 132.315038 
L 611.693694 133.167006 
L 613.927928 133.868419 
L 617.837838 134.954217 
L 619.513514 135.022191 
L 621.189189 134.994667 
L 623.423423 134.959079 
L 629.009009 134.924075 
L 630.684685 134.635518 
L 633.477477 134.125953 
L 634.594595 134.217685 
L 637.945946 135.110247 
L 640.18018 135.506092 
L 641.855856 135.824325 
L 644.09009 136.272714 
L 645.765766 136.591126 
L 648 136.857102 
L 648 136.857102 
" clip-path="url(#p2965a681c2)" style="fill: none; stroke: #ff0000; stroke-opacity: 0.2; stroke-width: 1.5; stroke-linecap: square"/>
   </g>
   <g id="patch_3">
    <path d="M 90 384.48 
L 90 51.84 
" style="fill: none; stroke: #000000; stroke-width: 0.8; stroke-linejoin: miter; stroke-linecap: square"/>
   </g>
   <g id="patch_4">
    <path d="M 648 384.48 
L 648 51.84 
" style="fill: none; stroke: #000000; stroke-width: 0.8; stroke-linejoin: miter; stroke-linecap: square"/>
   </g>
   <g id="patch_5">
    <path d="M 90 384.48 
L 648 384.48 
" style="fill: none; stroke: #000000; stroke-width: 0.8; stroke-linejoin: miter; stroke-linecap: square"/>
   </g>
   <g id="patch_6">
    <path d="M 90 51.84 
L 648 51.84 
" style="fill: none; stroke: #000000; stroke-width: 0.8; stroke-linejoin: miter; stroke-linecap: square"/>
   </g>
  </g>
 </g>
 <defs>
  <clipPath id="p2965a681c2">
   <rect x="90" y="51.84" width="558" height="332.64"/>
  </clipPath>
 </defs>
</svg>
