<?xml version="1.0" encoding="utf-8" standalone="no"?>
<!DOCTYPE svg PUBLIC "-//W3C//DTD SVG 1.1//EN"
  "http://www.w3.org/Graphics/SVG/1.1/DTD/svg11.dtd">
<!-- Created with matplotlib (https://matplotlib.org/) -->
<svg height="432pt" version="1.1" viewBox="0 0 720 432" width="720pt" xmlns="http://www.w3.org/2000/svg" xmlns:xlink="http://www.w3.org/1999/xlink">
 <defs>
  <style type="text/css">
*{stroke-linecap:butt;stroke-linejoin:round;}
  </style>
 </defs>
 <g id="figure_1">
  <g id="patch_1">
   <path d="M 0 432 
L 720 432 
L 720 0 
L 0 0 
z
" style="fill:none;"/>
  </g>
  <g id="axes_1">
   <g id="patch_2">
    <path d="M 90 384.48 
L 648 384.48 
L 648 51.84 
L 90 51.84 
z
" style="fill:none;"/>
   </g>
   <g id="matplotlib.axis_1">
    <g id="xtick_1">
     <g id="line2d_1">
      <defs>
       <path d="M 0 0 
L 0 3.5 
" id="m438d156ac0" style="stroke:#000000;stroke-width:0.8;"/>
      </defs>
      <g>
       <use style="stroke:#000000;stroke-width:0.8;" x="90" xlink:href="#m438d156ac0" y="384.48"/>
      </g>
     </g>
     <g id="text_1">
      <!-- −10.0 -->
      <defs>
       <path d="M 10.59375 35.5 
L 73.1875 35.5 
L 73.1875 27.203125 
L 10.59375 27.203125 
z
" id="DejaVuSans-8722"/>
       <path d="M 12.40625 8.296875 
L 28.515625 8.296875 
L 28.515625 63.921875 
L 10.984375 60.40625 
L 10.984375 69.390625 
L 28.421875 72.90625 
L 38.28125 72.90625 
L 38.28125 8.296875 
L 54.390625 8.296875 
L 54.390625 0 
L 12.40625 0 
z
" id="DejaVuSans-49"/>
       <path d="M 31.78125 66.40625 
Q 24.171875 66.40625 20.328125 58.90625 
Q 16.5 51.421875 16.5 36.375 
Q 16.5 21.390625 20.328125 13.890625 
Q 24.171875 6.390625 31.78125 6.390625 
Q 39.453125 6.390625 43.28125 13.890625 
Q 47.125 21.390625 47.125 36.375 
Q 47.125 51.421875 43.28125 58.90625 
Q 39.453125 66.40625 31.78125 66.40625 
z
M 31.78125 74.21875 
Q 44.046875 74.21875 50.515625 64.515625 
Q 56.984375 54.828125 56.984375 36.375 
Q 56.984375 17.96875 50.515625 8.265625 
Q 44.046875 -1.421875 31.78125 -1.421875 
Q 19.53125 -1.421875 13.0625 8.265625 
Q 6.59375 17.96875 6.59375 36.375 
Q 6.59375 54.828125 13.0625 64.515625 
Q 19.53125 74.21875 31.78125 74.21875 
z
" id="DejaVuSans-48"/>
       <path d="M 10.6875 12.40625 
L 21 12.40625 
L 21 0 
L 10.6875 0 
z
" id="DejaVuSans-46"/>
      </defs>
      <g transform="translate(74.677344 399.078438)scale(0.1 -0.1)">
       <use xlink:href="#DejaVuSans-8722"/>
       <use x="83.789062" xlink:href="#DejaVuSans-49"/>
       <use x="147.412109" xlink:href="#DejaVuSans-48"/>
       <use x="211.035156" xlink:href="#DejaVuSans-46"/>
       <use x="242.822266" xlink:href="#DejaVuSans-48"/>
      </g>
     </g>
    </g>
    <g id="xtick_2">
     <g id="line2d_2">
      <g>
       <use style="stroke:#000000;stroke-width:0.8;" x="159.75" xlink:href="#m438d156ac0" y="384.48"/>
      </g>
     </g>
     <g id="text_2">
      <!-- −7.5 -->
      <defs>
       <path d="M 8.203125 72.90625 
L 55.078125 72.90625 
L 55.078125 68.703125 
L 28.609375 0 
L 18.3125 0 
L 43.21875 64.59375 
L 8.203125 64.59375 
z
" id="DejaVuSans-55"/>
       <path d="M 10.796875 72.90625 
L 49.515625 72.90625 
L 49.515625 64.59375 
L 19.828125 64.59375 
L 19.828125 46.734375 
Q 21.96875 47.46875 24.109375 47.828125 
Q 26.265625 48.1875 28.421875 48.1875 
Q 40.625 48.1875 47.75 41.5 
Q 54.890625 34.8125 54.890625 23.390625 
Q 54.890625 11.625 47.5625 5.09375 
Q 40.234375 -1.421875 26.90625 -1.421875 
Q 22.3125 -1.421875 17.546875 -0.640625 
Q 12.796875 0.140625 7.71875 1.703125 
L 7.71875 11.625 
Q 12.109375 9.234375 16.796875 8.0625 
Q 21.484375 6.890625 26.703125 6.890625 
Q 35.15625 6.890625 40.078125 11.328125 
Q 45.015625 15.765625 45.015625 23.390625 
Q 45.015625 31 40.078125 35.4375 
Q 35.15625 39.890625 26.703125 39.890625 
Q 22.75 39.890625 18.8125 39.015625 
Q 14.890625 38.140625 10.796875 36.28125 
z
" id="DejaVuSans-53"/>
      </defs>
      <g transform="translate(147.608594 399.078438)scale(0.1 -0.1)">
       <use xlink:href="#DejaVuSans-8722"/>
       <use x="83.789062" xlink:href="#DejaVuSans-55"/>
       <use x="147.412109" xlink:href="#DejaVuSans-46"/>
       <use x="179.199219" xlink:href="#DejaVuSans-53"/>
      </g>
     </g>
    </g>
    <g id="xtick_3">
     <g id="line2d_3">
      <g>
       <use style="stroke:#000000;stroke-width:0.8;" x="229.5" xlink:href="#m438d156ac0" y="384.48"/>
      </g>
     </g>
     <g id="text_3">
      <!-- −5.0 -->
      <g transform="translate(217.358594 399.078438)scale(0.1 -0.1)">
       <use xlink:href="#DejaVuSans-8722"/>
       <use x="83.789062" xlink:href="#DejaVuSans-53"/>
       <use x="147.412109" xlink:href="#DejaVuSans-46"/>
       <use x="179.199219" xlink:href="#DejaVuSans-48"/>
      </g>
     </g>
    </g>
    <g id="xtick_4">
     <g id="line2d_4">
      <g>
       <use style="stroke:#000000;stroke-width:0.8;" x="299.25" xlink:href="#m438d156ac0" y="384.48"/>
      </g>
     </g>
     <g id="text_4">
      <!-- −2.5 -->
      <defs>
       <path d="M 19.1875 8.296875 
L 53.609375 8.296875 
L 53.609375 0 
L 7.328125 0 
L 7.328125 8.296875 
Q 12.9375 14.109375 22.625 23.890625 
Q 32.328125 33.6875 34.8125 36.53125 
Q 39.546875 41.84375 41.421875 45.53125 
Q 43.3125 49.21875 43.3125 52.78125 
Q 43.3125 58.59375 39.234375 62.25 
Q 35.15625 65.921875 28.609375 65.921875 
Q 23.96875 65.921875 18.8125 64.3125 
Q 13.671875 62.703125 7.8125 59.421875 
L 7.8125 69.390625 
Q 13.765625 71.78125 18.9375 73 
Q 24.125 74.21875 28.421875 74.21875 
Q 39.75 74.21875 46.484375 68.546875 
Q 53.21875 62.890625 53.21875 53.421875 
Q 53.21875 48.921875 51.53125 44.890625 
Q 49.859375 40.875 45.40625 35.40625 
Q 44.1875 33.984375 37.640625 27.21875 
Q 31.109375 20.453125 19.1875 8.296875 
z
" id="DejaVuSans-50"/>
      </defs>
      <g transform="translate(287.108594 399.078438)scale(0.1 -0.1)">
       <use xlink:href="#DejaVuSans-8722"/>
       <use x="83.789062" xlink:href="#DejaVuSans-50"/>
       <use x="147.412109" xlink:href="#DejaVuSans-46"/>
       <use x="179.199219" xlink:href="#DejaVuSans-53"/>
      </g>
     </g>
    </g>
    <g id="xtick_5">
     <g id="line2d_5">
      <g>
       <use style="stroke:#000000;stroke-width:0.8;" x="369" xlink:href="#m438d156ac0" y="384.48"/>
      </g>
     </g>
     <g id="text_5">
      <!-- 0.0 -->
      <g transform="translate(361.048437 399.078438)scale(0.1 -0.1)">
       <use xlink:href="#DejaVuSans-48"/>
       <use x="63.623047" xlink:href="#DejaVuSans-46"/>
       <use x="95.410156" xlink:href="#DejaVuSans-48"/>
      </g>
     </g>
    </g>
    <g id="xtick_6">
     <g id="line2d_6">
      <g>
       <use style="stroke:#000000;stroke-width:0.8;" x="438.75" xlink:href="#m438d156ac0" y="384.48"/>
      </g>
     </g>
     <g id="text_6">
      <!-- 2.5 -->
      <g transform="translate(430.798437 399.078438)scale(0.1 -0.1)">
       <use xlink:href="#DejaVuSans-50"/>
       <use x="63.623047" xlink:href="#DejaVuSans-46"/>
       <use x="95.410156" xlink:href="#DejaVuSans-53"/>
      </g>
     </g>
    </g>
    <g id="xtick_7">
     <g id="line2d_7">
      <g>
       <use style="stroke:#000000;stroke-width:0.8;" x="508.5" xlink:href="#m438d156ac0" y="384.48"/>
      </g>
     </g>
     <g id="text_7">
      <!-- 5.0 -->
      <g transform="translate(500.548437 399.078438)scale(0.1 -0.1)">
       <use xlink:href="#DejaVuSans-53"/>
       <use x="63.623047" xlink:href="#DejaVuSans-46"/>
       <use x="95.410156" xlink:href="#DejaVuSans-48"/>
      </g>
     </g>
    </g>
    <g id="xtick_8">
     <g id="line2d_8">
      <g>
       <use style="stroke:#000000;stroke-width:0.8;" x="578.25" xlink:href="#m438d156ac0" y="384.48"/>
      </g>
     </g>
     <g id="text_8">
      <!-- 7.5 -->
      <g transform="translate(570.298437 399.078438)scale(0.1 -0.1)">
       <use xlink:href="#DejaVuSans-55"/>
       <use x="63.623047" xlink:href="#DejaVuSans-46"/>
       <use x="95.410156" xlink:href="#DejaVuSans-53"/>
      </g>
     </g>
    </g>
    <g id="xtick_9">
     <g id="line2d_9">
      <g>
       <use style="stroke:#000000;stroke-width:0.8;" x="648" xlink:href="#m438d156ac0" y="384.48"/>
      </g>
     </g>
     <g id="text_9">
      <!-- 10.0 -->
      <g transform="translate(636.867188 399.078438)scale(0.1 -0.1)">
       <use xlink:href="#DejaVuSans-49"/>
       <use x="63.623047" xlink:href="#DejaVuSans-48"/>
       <use x="127.246094" xlink:href="#DejaVuSans-46"/>
       <use x="159.033203" xlink:href="#DejaVuSans-48"/>
      </g>
     </g>
    </g>
   </g>
   <g id="matplotlib.axis_2">
    <g id="ytick_1">
     <g id="line2d_10">
      <defs>
       <path d="M 0 0 
L -3.5 0 
" id="m4d513308f7" style="stroke:#000000;stroke-width:0.8;"/>
      </defs>
      <g>
       <use style="stroke:#000000;stroke-width:0.8;" x="90" xlink:href="#m4d513308f7" y="384.48"/>
      </g>
     </g>
     <g id="text_10">
      <!-- −0.50 -->
      <g transform="translate(52.354687 388.279219)scale(0.1 -0.1)">
       <use xlink:href="#DejaVuSans-8722"/>
       <use x="83.789062" xlink:href="#DejaVuSans-48"/>
       <use x="147.412109" xlink:href="#DejaVuSans-46"/>
       <use x="179.199219" xlink:href="#DejaVuSans-53"/>
       <use x="242.822266" xlink:href="#DejaVuSans-48"/>
      </g>
     </g>
    </g>
    <g id="ytick_2">
     <g id="line2d_11">
      <g>
       <use style="stroke:#000000;stroke-width:0.8;" x="90" xlink:href="#m4d513308f7" y="342.9"/>
      </g>
     </g>
     <g id="text_11">
      <!-- −0.25 -->
      <g transform="translate(52.354687 346.699219)scale(0.1 -0.1)">
       <use xlink:href="#DejaVuSans-8722"/>
       <use x="83.789062" xlink:href="#DejaVuSans-48"/>
       <use x="147.412109" xlink:href="#DejaVuSans-46"/>
       <use x="179.199219" xlink:href="#DejaVuSans-50"/>
       <use x="242.822266" xlink:href="#DejaVuSans-53"/>
      </g>
     </g>
    </g>
    <g id="ytick_3">
     <g id="line2d_12">
      <g>
       <use style="stroke:#000000;stroke-width:0.8;" x="90" xlink:href="#m4d513308f7" y="301.32"/>
      </g>
     </g>
     <g id="text_12">
      <!-- 0.00 -->
      <g transform="translate(60.734375 305.119219)scale(0.1 -0.1)">
       <use xlink:href="#DejaVuSans-48"/>
       <use x="63.623047" xlink:href="#DejaVuSans-46"/>
       <use x="95.410156" xlink:href="#DejaVuSans-48"/>
       <use x="159.033203" xlink:href="#DejaVuSans-48"/>
      </g>
     </g>
    </g>
    <g id="ytick_4">
     <g id="line2d_13">
      <g>
       <use style="stroke:#000000;stroke-width:0.8;" x="90" xlink:href="#m4d513308f7" y="259.74"/>
      </g>
     </g>
     <g id="text_13">
      <!-- 0.25 -->
      <g transform="translate(60.734375 263.539219)scale(0.1 -0.1)">
       <use xlink:href="#DejaVuSans-48"/>
       <use x="63.623047" xlink:href="#DejaVuSans-46"/>
       <use x="95.410156" xlink:href="#DejaVuSans-50"/>
       <use x="159.033203" xlink:href="#DejaVuSans-53"/>
      </g>
     </g>
    </g>
    <g id="ytick_5">
     <g id="line2d_14">
      <g>
       <use style="stroke:#000000;stroke-width:0.8;" x="90" xlink:href="#m4d513308f7" y="218.16"/>
      </g>
     </g>
     <g id="text_14">
      <!-- 0.50 -->
      <g transform="translate(60.734375 221.959219)scale(0.1 -0.1)">
       <use xlink:href="#DejaVuSans-48"/>
       <use x="63.623047" xlink:href="#DejaVuSans-46"/>
       <use x="95.410156" xlink:href="#DejaVuSans-53"/>
       <use x="159.033203" xlink:href="#DejaVuSans-48"/>
      </g>
     </g>
    </g>
    <g id="ytick_6">
     <g id="line2d_15">
      <g>
       <use style="stroke:#000000;stroke-width:0.8;" x="90" xlink:href="#m4d513308f7" y="176.58"/>
      </g>
     </g>
     <g id="text_15">
      <!-- 0.75 -->
      <g transform="translate(60.734375 180.379219)scale(0.1 -0.1)">
       <use xlink:href="#DejaVuSans-48"/>
       <use x="63.623047" xlink:href="#DejaVuSans-46"/>
       <use x="95.410156" xlink:href="#DejaVuSans-55"/>
       <use x="159.033203" xlink:href="#DejaVuSans-53"/>
      </g>
     </g>
    </g>
    <g id="ytick_7">
     <g id="line2d_16">
      <g>
       <use style="stroke:#000000;stroke-width:0.8;" x="90" xlink:href="#m4d513308f7" y="135"/>
      </g>
     </g>
     <g id="text_16">
      <!-- 1.00 -->
      <g transform="translate(60.734375 138.799219)scale(0.1 -0.1)">
       <use xlink:href="#DejaVuSans-49"/>
       <use x="63.623047" xlink:href="#DejaVuSans-46"/>
       <use x="95.410156" xlink:href="#DejaVuSans-48"/>
       <use x="159.033203" xlink:href="#DejaVuSans-48"/>
      </g>
     </g>
    </g>
    <g id="ytick_8">
     <g id="line2d_17">
      <g>
       <use style="stroke:#000000;stroke-width:0.8;" x="90" xlink:href="#m4d513308f7" y="93.42"/>
      </g>
     </g>
     <g id="text_17">
      <!-- 1.25 -->
      <g transform="translate(60.734375 97.219219)scale(0.1 -0.1)">
       <use xlink:href="#DejaVuSans-49"/>
       <use x="63.623047" xlink:href="#DejaVuSans-46"/>
       <use x="95.410156" xlink:href="#DejaVuSans-50"/>
       <use x="159.033203" xlink:href="#DejaVuSans-53"/>
      </g>
     </g>
    </g>
    <g id="ytick_9">
     <g id="line2d_18">
      <g>
       <use style="stroke:#000000;stroke-width:0.8;" x="90" xlink:href="#m4d513308f7" y="51.84"/>
      </g>
     </g>
     <g id="text_18">
      <!-- 1.50 -->
      <g transform="translate(60.734375 55.639219)scale(0.1 -0.1)">
       <use xlink:href="#DejaVuSans-49"/>
       <use x="63.623047" xlink:href="#DejaVuSans-46"/>
       <use x="95.410156" xlink:href="#DejaVuSans-53"/>
       <use x="159.033203" xlink:href="#DejaVuSans-48"/>
      </g>
     </g>
    </g>
   </g>
   <g id="line2d_19">
    <path clip-path="url(#p48900d71e7)" d="M 90 133.462205 
L 95.585586 134.895702 
L 101.171171 135.953626 
L 103.405405 135.596417 
L 106.198198 134.95654 
L 107.315315 134.836803 
L 110.666667 134.549387 
L 115.693694 133.794268 
L 117.369369 134.0305 
L 124.072072 135.347217 
L 126.864865 136.386383 
L 131.891892 137.741448 
L 134.126126 138.106544 
L 136.918919 138.070058 
L 139.711712 137.770816 
L 141.387387 137.577278 
L 144.738739 137.243294 
L 146.972973 136.800937 
L 149.207207 136.32625 
L 154.234234 135.488889 
L 158.702703 134.733006 
L 163.72973 134.894764 
L 170.990991 134.203828 
L 172.666667 133.66709 
L 174.900901 133.381886 
L 181.603604 132.432273 
L 185.513514 132.599655 
L 187.189189 132.853534 
L 192.774775 134.164348 
L 195.567568 134.416225 
L 197.243243 134.538351 
L 200.036036 134.68595 
L 201.711712 134.64092 
L 203.387387 134.639368 
L 210.648649 134.617537 
L 212.324324 134.511314 
L 215.675676 134.537151 
L 218.468468 134.686385 
L 221.81982 134.669583 
L 223.495495 134.827015 
L 225.72973 134.675207 
L 227.963964 134.246955 
L 231.315315 133.315582 
L 232.432432 133.203011 
L 234.666667 133.188992 
L 236.342342 133.135029 
L 239.135135 133.35781 
L 240.810811 133.513456 
L 241.927928 133.48381 
L 244.162162 133.372779 
L 245.837838 133.361697 
L 246.954955 133.381019 
L 248.630631 133.123727 
L 251.981982 132.433937 
L 255.891892 132.148289 
L 258.684685 132.174271 
L 260.918919 132.453792 
L 262.594595 132.832272 
L 263.711712 132.900493 
L 265.387387 132.718209 
L 270.972973 131.915402 
L 272.648649 131.797734 
L 277.117117 131.579281 
L 281.585586 130.661885 
L 283.261261 130.540667 
L 284.936937 130.523771 
L 287.72973 130.216801 
L 289.405405 129.958338 
L 293.873874 129.136669 
L 294.990991 128.899684 
L 296.666667 128.811258 
L 297.783784 128.732875 
L 300.018018 128.267899 
L 301.135135 127.946884 
L 308.954955 126.355054 
L 312.306306 125.31877 
L 314.540541 124.436474 
L 316.216216 123.524371 
L 320.684685 120.363807 
L 324.036036 117.458708 
L 332.414414 109.349427 
L 338.558559 103.46993 
L 343.585586 99.24004 
L 351.963964 91.429882 
L 354.756757 88.764987 
L 356.432432 86.973217 
L 358.108108 85.553806 
L 362.018018 82.370468 
L 365.369369 80.742141 
L 367.603604 80.164358 
L 369.279279 79.993333 
L 370.954955 80.002252 
L 373.189189 80.220959 
L 374.864865 80.770239 
L 378.774775 82.701347 
L 380.45045 83.895173 
L 384.36036 87.630413 
L 386.036036 89.349047 
L 391.063063 93.969753 
L 393.855856 96.274137 
L 401.117117 101.763709 
L 405.027027 105.415801 
L 410.054054 110.175294 
L 411.72973 111.492331 
L 415.081081 113.986361 
L 418.990991 117.127693 
L 421.783784 119.156685 
L 424.018018 120.363282 
L 426.810811 122.037458 
L 428.486486 123.13684 
L 429.603604 123.676071 
L 430.720721 124.010726 
L 431.837838 124.189956 
L 432.954955 124.566861 
L 434.630631 125.148651 
L 436.306306 125.665601 
L 439.657658 126.507559 
L 443.567568 127.597053 
L 444.684685 127.745829 
L 446.36036 127.709429 
L 447.477477 127.886031 
L 449.153153 128.292947 
L 450.27027 128.534912 
L 454.18018 129.865642 
L 460.324324 130.980392 
L 462.558559 131.965652 
L 463.675676 132.626104 
L 465.351351 133.81905 
L 467.585586 135.468639 
L 469.261261 136.335402 
L 474.288288 138.71422 
L 475.963964 139.311735 
L 479.873874 140.34543 
L 481.54955 140.814142 
L 482.666667 140.948035 
L 485.459459 140.888369 
L 488.252252 140.382139 
L 491.045045 139.150588 
L 492.162162 138.680789 
L 494.954955 137.880108 
L 496.630631 137.42779 
L 500.540541 136.547114 
L 502.216216 136.10192 
L 503.333333 135.955622 
L 504.45045 135.820167 
L 506.684685 135.387825 
L 508.918919 135.373641 
L 511.711712 135.541062 
L 513.387387 135.700578 
L 516.738739 135.690928 
L 521.765766 136.742612 
L 524 136.900959 
L 530.144144 137.039203 
L 532.936937 137.038332 
L 536.288288 136.911972 
L 538.522523 136.445593 
L 540.756757 135.781232 
L 544.108108 135.111756 
L 546.342342 134.833184 
L 549.135135 134.211347 
L 551.927928 133.505836 
L 555.837838 132.936369 
L 556.954955 132.83218 
L 560.864865 132.865434 
L 563.657658 132.515299 
L 565.333333 132.045916 
L 567.009009 131.745739 
L 569.243243 131.815031 
L 572.036036 132.107044 
L 576.504505 133.410612 
L 577.621622 133.441321 
L 579.297297 133.32133 
L 581.531532 133.597475 
L 592.144144 135.138024 
L 593.81982 135.062513 
L 597.72973 134.362124 
L 599.963964 134.510425 
L 603.873874 134.822952 
L 608.900901 135.343945 
L 610.576577 135.446681 
L 612.810811 135.699898 
L 614.486486 136.024353 
L 616.720721 136.331202 
L 618.396396 136.866563 
L 622.864865 138.519296 
L 625.099099 139.344549 
L 626.774775 139.852894 
L 628.45045 140.136994 
L 630.684685 140.165817 
L 631.801802 140.10896 
L 637.945946 139.020624 
L 640.18018 138.56723 
L 644.09009 137.196505 
L 645.765766 136.72581 
L 648 135.601231 
L 648 135.601231 
" style="fill:none;stroke:#ff0000;stroke-linecap:square;stroke-opacity:0.2;stroke-width:1.5;"/>
   </g>
   <g id="line2d_20">
    <path clip-path="url(#p48900d71e7)" d="M 90 135.114789 
L 91.675676 133.945754 
L 92.792793 133.306939 
L 95.585586 132.224193 
L 98.378378 131.586071 
L 103.963964 130.950402 
L 107.873874 131.089213 
L 108.990991 131.192739 
L 116.810811 130.960175 
L 119.045045 131.289397 
L 123.513514 131.395962 
L 125.189189 131.262441 
L 127.423423 131.352376 
L 130.216216 131.177239 
L 131.891892 131.200683 
L 134.684685 130.907008 
L 141.387387 131.417271 
L 144.18018 131.261319 
L 145.297297 131.428917 
L 151.441441 132.752466 
L 155.351351 133.344244 
L 158.144144 133.554567 
L 160.378378 133.873457 
L 163.171171 133.939466 
L 165.405405 134.265694 
L 167.081081 134.266143 
L 169.315315 134.251954 
L 172.108108 134.258499 
L 173.783784 133.99827 
L 177.135135 133.292261 
L 178.810811 133.196741 
L 187.189189 131.291605 
L 189.423423 130.666529 
L 191.099099 130.104134 
L 193.891892 129.531314 
L 196.684685 129.443547 
L 199.477477 129.596876 
L 201.711712 129.951821 
L 203.387387 130.504793 
L 205.063063 131.171817 
L 210.09009 133.146301 
L 212.324324 133.740747 
L 219.585586 135.739468 
L 220.702703 135.743362 
L 225.171171 135.558133 
L 230.198198 134.208302 
L 232.432432 133.770078 
L 234.108108 133.682259 
L 237.459459 133.69957 
L 239.693694 133.832799 
L 245.837838 133.339593 
L 248.630631 132.611656 
L 249.747748 132.2795 
L 251.423423 132.015716 
L 260.918919 131.235434 
L 263.153153 130.921337 
L 265.387387 131.047075 
L 268.18018 131.554712 
L 270.414414 132.237234 
L 271.531532 132.547144 
L 276.558559 133.231922 
L 278.792793 133.70436 
L 280.468468 133.656403 
L 283.261261 133.239397 
L 284.936937 132.639597 
L 287.72973 131.29987 
L 289.963964 130.086614 
L 291.081081 129.732317 
L 292.198198 129.571873 
L 293.873874 129.36085 
L 298.342342 128.495163 
L 300.018018 128.001475 
L 303.369369 126.864477 
L 306.720721 125.128088 
L 307.837838 124.430231 
L 309.513514 123.334207 
L 311.747748 122.179018 
L 316.216216 120.161524 
L 319.009009 118.941996 
L 320.684685 118.412246 
L 322.918919 117.273643 
L 324.594595 116.060898 
L 326.828829 114.030586 
L 328.504505 112.498836 
L 330.738739 110.579013 
L 334.09009 107.314331 
L 336.882883 104.611899 
L 346.936937 95.020535 
L 350.846847 91.022843 
L 355.315315 86.598541 
L 356.432432 85.745574 
L 358.108108 84.766879 
L 359.783784 83.775547 
L 363.693694 81.413909 
L 365.369369 80.678533 
L 366.486486 80.417923 
L 367.603604 80.384835 
L 370.396396 80.707081 
L 372.072072 81.173338 
L 374.306306 81.943504 
L 375.423423 82.376599 
L 376.540541 83.030557 
L 379.891892 85.313208 
L 381.009009 86.063758 
L 382.684685 86.882683 
L 383.801802 87.396009 
L 385.477477 88.398941 
L 387.153153 89.659878 
L 388.828829 91.116734 
L 393.297297 94.93766 
L 395.531532 96.490901 
L 398.882883 99.111591 
L 401.675676 101.810654 
L 406.702703 106.191958 
L 408.936937 108.682517 
L 412.846847 113.58742 
L 415.63964 116.52974 
L 417.873874 118.532525 
L 419.54955 119.77633 
L 422.900901 122.065496 
L 425.693694 123.326943 
L 427.927928 124.377802 
L 431.837838 126.013442 
L 434.630631 127.116269 
L 436.864865 127.965886 
L 438.540541 128.499944 
L 439.657658 128.822227 
L 442.45045 129.076521 
L 444.126126 129.242194 
L 445.801802 129.724321 
L 449.711712 131.03001 
L 451.945946 131.537607 
L 453.621622 131.67112 
L 455.855856 131.628174 
L 460.324324 131.200334 
L 463.117117 130.827923 
L 465.351351 130.793555 
L 466.468468 130.953594 
L 473.171171 133.049697 
L 474.846847 133.737474 
L 476.522523 134.697375 
L 479.873874 136.477121 
L 481.54955 137.037949 
L 486.018018 138.047431 
L 487.693694 138.084738 
L 491.045045 137.995735 
L 492.162162 137.776642 
L 493.279279 137.800583 
L 496.072072 138.494519 
L 497.189189 138.714877 
L 498.306306 138.762717 
L 503.891892 137.645297 
L 510.594595 135.401876 
L 512.27027 135.232614 
L 515.063063 135.223379 
L 517.297297 135.350747 
L 520.09009 136.020808 
L 523.441441 137.194254 
L 528.468468 138.589116 
L 530.144144 138.590057 
L 532.378378 138.378526 
L 534.054054 138.473577 
L 535.171171 138.637577 
L 540.198198 138.711813 
L 544.666667 138.310556 
L 546.900901 138.155467 
L 550.810811 138.30071 
L 552.486486 138.178307 
L 554.162162 138.312692 
L 555.279279 138.399497 
L 556.396396 138.289319 
L 558.630631 137.703194 
L 561.981982 137.064257 
L 567.567568 135.053159 
L 568.684685 134.800482 
L 570.918919 134.574131 
L 574.27027 134.820739 
L 576.504505 135.053574 
L 578.18018 135.061955 
L 580.972973 134.956843 
L 582.648649 135.045514 
L 587.117117 135.083675 
L 588.792793 135.431754 
L 592.144144 136.500375 
L 593.81982 137.23613 
L 595.495495 137.651818 
L 596.612613 137.821061 
L 599.405405 137.733692 
L 603.873874 138.115097 
L 606.108108 138.162047 
L 607.783784 138.118024 
L 608.900901 138.075161 
L 611.693694 138.458587 
L 612.810811 138.762907 
L 615.045045 138.876275 
L 618.396396 138.51548 
L 620.630631 138.159709 
L 625.657658 137.745711 
L 626.774775 137.371363 
L 630.126126 135.858159 
L 635.153153 134.031865 
L 636.27027 133.591897 
L 639.063063 132.206311 
L 644.648649 129.082196 
L 646.324324 128.571772 
L 648 128.055389 
L 648 128.055389 
" style="fill:none;stroke:#ff0000;stroke-linecap:square;stroke-opacity:0.2;stroke-width:1.5;"/>
   </g>
   <g id="line2d_21">
    <path clip-path="url(#p48900d71e7)" d="M 90 131.756302 
L 92.792793 131.871612 
L 94.468468 132.168838 
L 97.81982 133.151832 
L 101.72973 133.49489 
L 103.963964 133.292712 
L 106.756757 132.874013 
L 108.990991 132.794787 
L 110.666667 132.606524 
L 112.342342 132.314042 
L 114.018018 132.172481 
L 116.810811 131.943953 
L 119.045045 132.130149 
L 120.162162 132.170864 
L 123.513514 132.256862 
L 126.864865 132.442541 
L 129.657658 132.197365 
L 131.891892 132.145849 
L 133.567568 131.7605 
L 136.918919 131.235699 
L 138.036036 130.897947 
L 139.711712 130.680365 
L 141.945946 130.570702 
L 143.063063 130.498296 
L 146.414414 130.890104 
L 151.441441 132.012125 
L 155.351351 133.037008 
L 157.585586 133.766162 
L 159.81982 134.143759 
L 166.522523 135.081792 
L 168.198198 135.420805 
L 170.432432 135.610884 
L 173.225225 135.528951 
L 175.459459 134.989507 
L 177.693694 134.516581 
L 180.486486 134.05104 
L 182.162162 133.993591 
L 187.747748 134.220955 
L 188.864865 134.229458 
L 191.099099 134.626856 
L 192.216216 134.971836 
L 195.567568 136.317002 
L 198.36036 137.027151 
L 200.036036 137.111439 
L 205.063063 136.593689 
L 206.18018 136.460913 
L 208.414414 135.973686 
L 214 135.574854 
L 215.675676 135.366712 
L 218.468468 134.873063 
L 220.702703 134.425949 
L 222.378378 134.022035 
L 226.288288 133.42809 
L 230.198198 133.057044 
L 231.873874 133.071481 
L 234.666667 133.377565 
L 236.900901 133.382073 
L 238.576577 133.147158 
L 241.927928 133.183312 
L 245.279279 133.867639 
L 246.396396 133.8173 
L 250.864865 133.408069 
L 252.540541 133.295945 
L 254.216216 132.961074 
L 257.009009 132.536366 
L 260.918919 131.772535 
L 263.711712 130.960857 
L 265.387387 130.671579 
L 268.738739 130.06064 
L 271.531532 129.783972 
L 272.648649 129.812195 
L 274.882883 129.8983 
L 279.90991 129.749017 
L 282.144144 129.912092 
L 285.495495 130.176998 
L 286.612613 130.269443 
L 287.72973 130.290444 
L 291.081081 130.669563 
L 293.315315 130.861356 
L 294.990991 130.976963 
L 298.900901 130.623846 
L 301.135135 130.127952 
L 302.252252 129.684747 
L 303.927928 128.793846 
L 306.162162 127.320755 
L 307.279279 126.629882 
L 308.396396 125.926837 
L 314.540541 122.187274 
L 317.333333 121.046846 
L 322.36036 118.4307 
L 324.036036 117.44802 
L 326.27027 115.889094 
L 327.945946 114.711298 
L 329.621622 113.487701 
L 331.297297 111.770789 
L 334.09009 108.976853 
L 336.882883 105.888644 
L 339.675676 102.568912 
L 342.468468 99.151962 
L 346.378378 94.422128 
L 353.081081 87.87424 
L 356.990991 84.569312 
L 359.783784 82.76889 
L 360.900901 82.366747 
L 362.018018 82.166813 
L 364.252252 82.113967 
L 366.486486 81.690869 
L 368.720721 81.254573 
L 370.396396 81.234615 
L 372.630631 81.5451 
L 374.306306 81.821864 
L 376.540541 82.28639 
L 378.216216 82.851983 
L 381.009009 84.370996 
L 382.126126 85.272051 
L 392.738739 95.181565 
L 401.117117 103.253842 
L 402.792793 104.776037 
L 408.378378 109.991536 
L 410.612613 111.778575 
L 414.522523 114.83794 
L 418.990991 118.590013 
L 420.108108 119.247141 
L 422.900901 120.374903 
L 425.135135 121.586365 
L 431.279279 124.525649 
L 435.747748 126.33355 
L 437.981982 126.818461 
L 441.333333 127.460843 
L 443.009009 127.759181 
L 445.243243 128.405449 
L 446.918919 128.883804 
L 456.414414 130.919887 
L 459.207207 131.670777 
L 463.675676 133.054739 
L 467.585586 133.806812 
L 471.495495 133.958639 
L 473.72973 134.286609 
L 477.081081 134.39152 
L 478.756757 134.462709 
L 483.225225 134.369775 
L 484.900901 134.555172 
L 486.576577 134.494031 
L 489.927928 134.989827 
L 491.603604 135.284644 
L 498.864865 136.432442 
L 500.540541 136.898514 
L 503.891892 137.8904 
L 505.567568 138.339334 
L 508.918919 139.513603 
L 510.594595 139.873972 
L 512.27027 139.902585 
L 513.945946 139.748292 
L 515.063063 139.609261 
L 518.414414 139.475541 
L 519.531532 139.291829 
L 525.117117 138.768943 
L 529.027027 137.325988 
L 530.702703 136.532337 
L 532.378378 136.153712 
L 536.288288 135.74804 
L 538.522523 135.584877 
L 540.198198 135.455431 
L 542.432432 135.530217 
L 544.108108 135.500468 
L 549.135135 135.600777 
L 559.747748 138.382604 
L 560.864865 138.482065 
L 562.540541 138.334295 
L 564.774775 137.720134 
L 566.45045 137.093541 
L 568.126126 136.829666 
L 570.36036 136.842519 
L 572.036036 137.033138 
L 575.387387 137.181493 
L 580.414414 136.475183 
L 584.882883 135.308973 
L 588.234234 134.160257 
L 589.351351 133.854473 
L 590.468468 133.750991 
L 594.378378 133.745383 
L 596.054054 134.033433 
L 597.171171 134.024649 
L 599.963964 133.784976 
L 607.225225 134.656011 
L 608.900901 135.232211 
L 611.693694 136.478183 
L 615.603604 138.375005 
L 617.279279 138.959547 
L 621.189189 139.972495 
L 622.306306 140.220661 
L 623.981982 140.300787 
L 625.657658 140.220644 
L 629.009009 139.822791 
L 631.801802 138.874547 
L 634.036036 138.013812 
L 635.153153 137.556994 
L 637.387387 136.402504 
L 639.063063 135.603933 
L 644.09009 132.083432 
L 645.765766 130.990612 
L 648 129.580514 
L 648 129.580514 
" style="fill:none;stroke:#ff0000;stroke-linecap:square;stroke-opacity:0.2;stroke-width:1.5;"/>
   </g>
   <g id="line2d_22">
    <path clip-path="url(#p48900d71e7)" d="M 90 133.268315 
L 93.90991 131.67988 
L 96.144144 131.014379 
L 97.261261 131.022418 
L 98.378378 131.28284 
L 99.495495 131.603689 
L 101.72973 131.868669 
L 105.081081 131.932264 
L 107.315315 131.920825 
L 111.225225 132.153152 
L 112.342342 132.187284 
L 115.693694 132.665705 
L 117.927928 133.082445 
L 121.279279 133.155993 
L 122.954955 132.855836 
L 124.072072 132.592769 
L 126.306306 132.459494 
L 128.540541 132.403906 
L 131.891892 131.995311 
L 136.36036 130.998141 
L 138.594595 130.890485 
L 140.828829 131.059602 
L 145.297297 131.571614 
L 147.531532 132.067346 
L 150.882883 132.578095 
L 153.117117 133.403538 
L 154.234234 133.752392 
L 155.90991 134.205703 
L 157.585586 134.636509 
L 158.702703 134.764807 
L 161.495495 134.624316 
L 164.288288 134.437321 
L 165.963964 134.255563 
L 172.108108 134.245504 
L 173.225225 134.265261 
L 176.018018 134.622049 
L 178.810811 134.966225 
L 181.045045 135.006817 
L 182.720721 134.672919 
L 184.396396 134.333797 
L 185.513514 134.224492 
L 189.981982 134.336164 
L 191.099099 134.609682 
L 192.774775 135.149466 
L 196.684685 135.861726 
L 198.36036 136.08833 
L 200.036036 136.466204 
L 203.387387 137.1687 
L 205.063063 137.653064 
L 206.18018 137.856543 
L 212.882883 138.449841 
L 215.675676 138.843609 
L 217.90991 139.608522 
L 220.144144 140.452106 
L 221.81982 140.976044 
L 222.936937 141.116279 
L 224.054054 141.018423 
L 225.171171 140.924674 
L 227.963964 140.921662 
L 231.315315 140.200962 
L 233.54955 140.073193 
L 235.783784 139.911016 
L 240.810811 139.158385 
L 243.603604 138.283446 
L 244.720721 137.835295 
L 246.954955 136.52609 
L 248.072072 135.902693 
L 250.306306 134.990439 
L 251.981982 134.440579 
L 253.099099 134.127741 
L 254.216216 133.770852 
L 256.45045 133.285152 
L 262.036036 132.445829 
L 264.828829 132.232243 
L 266.504505 132.089727 
L 267.621622 132.065973 
L 277.675676 130.797002 
L 279.351351 130.69622 
L 283.81982 130.154676 
L 285.495495 130.107859 
L 293.315315 128.929877 
L 295.54955 128.342726 
L 298.342342 127.561433 
L 299.459459 127.088291 
L 301.135135 126.752556 
L 305.045045 126.127925 
L 307.279279 125.676238 
L 309.513514 124.735168 
L 311.189189 123.708927 
L 316.774775 120.055541 
L 318.45045 118.975054 
L 320.684685 117.193152 
L 324.036036 114.424838 
L 325.711712 112.948298 
L 327.945946 111.118755 
L 329.621622 109.647397 
L 331.297297 108.167029 
L 338 102.766333 
L 342.468468 99.846278 
L 345.81982 97.052964 
L 348.054054 95.193487 
L 349.171171 94.535354 
L 353.081081 92.659497 
L 357.54955 90.153681 
L 358.666667 89.445083 
L 360.342342 88.618438 
L 362.576577 87.849387 
L 364.810811 87.386224 
L 371.513514 87.175397 
L 374.306306 87.286484 
L 375.981982 87.208299 
L 377.657658 87.36226 
L 379.333333 87.715965 
L 381.009009 88.225092 
L 382.126126 88.753296 
L 383.801802 89.625739 
L 385.477477 90.4944 
L 386.594595 91.14452 
L 397.207207 99.335749 
L 400.558559 102.571551 
L 402.792793 105.180777 
L 405.027027 107.756435 
L 406.702703 109.462615 
L 410.054054 112.518585 
L 412.846847 115.381372 
L 414.522523 116.869795 
L 416.198198 118.185444 
L 418.990991 120.015003 
L 420.108108 120.560963 
L 423.459459 121.759041 
L 428.486486 123.979783 
L 432.396396 125.475953 
L 434.072072 125.920534 
L 435.747748 126.013026 
L 438.540541 126.103843 
L 440.774775 126.48011 
L 444.126126 126.945096 
L 448.594595 127.955764 
L 453.621622 129.68209 
L 454.738739 129.883843 
L 458.648649 130.349269 
L 459.765766 130.592131 
L 463.675676 131.82982 
L 467.027027 132.582366 
L 469.261261 133.476223 
L 470.936937 133.846603 
L 473.171171 134.410863 
L 475.405405 135.372368 
L 478.756757 136.984971 
L 482.108108 138.355187 
L 488.252252 139.833304 
L 489.927928 140.06953 
L 493.279279 140.733509 
L 495.513514 140.552267 
L 498.864865 139.698681 
L 502.216216 138.358774 
L 504.45045 137.281831 
L 505.567568 137.039425 
L 509.477477 136.685936 
L 513.387387 136.421414 
L 515.621622 136.610516 
L 518.414414 137.007129 
L 521.207207 137.63107 
L 524 138.269627 
L 525.117117 138.764751 
L 529.027027 139.944105 
L 530.702703 139.98789 
L 531.81982 139.890976 
L 536.846847 138.254722 
L 538.522523 137.676182 
L 541.315315 137.12292 
L 547.459459 136.665076 
L 550.810811 136.818535 
L 553.603604 137.378957 
L 554.720721 137.397405 
L 556.954955 137.314888 
L 561.423423 137.581402 
L 564.774775 137.194574 
L 567.009009 136.765497 
L 568.684685 136.281441 
L 570.36036 135.774474 
L 571.477477 135.446111 
L 573.153153 135.185478 
L 577.063063 135.317059 
L 579.855856 134.922491 
L 583.765766 133.937238 
L 585.441441 133.641628 
L 586.558559 133.552483 
L 589.351351 133.778971 
L 592.702703 134.000774 
L 594.936937 134.258719 
L 597.171171 134.546403 
L 601.081081 134.847471 
L 603.315315 135.162221 
L 608.342342 136.433479 
L 609.459459 136.939496 
L 611.693694 138.036622 
L 613.369369 138.681334 
L 614.486486 139.153327 
L 615.603604 139.418152 
L 619.513514 139.63445 
L 623.423423 139.765226 
L 625.099099 139.797373 
L 626.216216 139.637505 
L 628.45045 139.017014 
L 630.684685 138.30672 
L 632.918919 137.167407 
L 635.711712 135.403692 
L 637.945946 133.926834 
L 639.063063 133.306875 
L 641.855856 131.932621 
L 646.882883 129.077504 
L 648 128.344149 
L 648 128.344149 
" style="fill:none;stroke:#ff0000;stroke-linecap:square;stroke-opacity:0.2;stroke-width:1.5;"/>
   </g>
   <g id="line2d_23">
    <path clip-path="url(#p48900d71e7)" d="M 90 127.511633 
L 91.117117 128.048341 
L 95.585586 129.463626 
L 97.261261 129.895726 
L 99.495495 130.306653 
L 101.171171 130.481363 
L 102.288288 130.442994 
L 104.522523 130.077583 
L 105.63964 130.13555 
L 107.315315 130.362665 
L 108.990991 130.683069 
L 111.225225 131.152853 
L 112.342342 131.20596 
L 117.369369 131.056748 
L 119.603604 131.665908 
L 120.720721 132.039364 
L 124.072072 132.796531 
L 127.981982 133.808183 
L 129.099099 133.9745 
L 135.243243 134.58571 
L 136.918919 134.80048 
L 140.828829 135.4786 
L 142.504505 135.688658 
L 146.972973 135.900172 
L 148.648649 136.266403 
L 150.882883 136.906234 
L 153.117117 137.186836 
L 157.585586 136.99206 
L 160.936937 136.440202 
L 163.72973 136.408627 
L 165.405405 136.441565 
L 166.522523 136.310527 
L 168.198198 135.819566 
L 169.873874 135.082215 
L 171.54955 134.078433 
L 174.342342 132.410484 
L 176.018018 131.7156 
L 177.135135 131.406374 
L 178.810811 131.12417 
L 182.162162 131.060118 
L 185.513514 131.383745 
L 187.189189 131.408176 
L 188.864865 131.469019 
L 191.099099 131.397676 
L 192.774775 131.403107 
L 196.126126 132.01202 
L 198.36036 132.742724 
L 200.036036 133.340086 
L 201.711712 134.149576 
L 203.945946 134.925878 
L 205.621622 135.250472 
L 206.738739 135.241977 
L 208.414414 135.016956 
L 210.09009 135.032828 
L 211.207207 135.088733 
L 212.882883 134.783873 
L 221.261261 133.624914 
L 222.936937 133.684227 
L 224.612613 133.932461 
L 225.72973 134.085006 
L 229.081081 134.145504 
L 235.225225 134.367039 
L 239.693694 133.814521 
L 241.927928 133.722671 
L 246.396396 133.736306 
L 249.747748 133.088433 
L 255.333333 131.805405 
L 257.567568 131.832469 
L 258.684685 131.7266 
L 260.36036 131.496915 
L 263.153153 131.401546 
L 264.828829 131.146943 
L 271.531532 131.268553 
L 273.207207 131.575089 
L 275.441441 132.095816 
L 279.351351 132.636513 
L 284.936937 132.804175 
L 288.288288 132.341642 
L 290.522523 131.538487 
L 292.198198 130.641047 
L 294.990991 129.15549 
L 298.900901 127.33975 
L 300.576577 126.751486 
L 303.369369 125.998876 
L 304.486486 125.683026 
L 307.837838 124.124307 
L 308.954955 123.498647 
L 314.540541 120.83431 
L 316.774775 119.149909 
L 319.567568 116.824752 
L 321.801802 114.972848 
L 324.594595 112.793944 
L 327.387387 110.427596 
L 332.414414 106.989404 
L 333.531532 105.886232 
L 337.441441 101.257092 
L 339.675676 98.416976 
L 340.792793 97.176304 
L 342.468468 95.767146 
L 348.612613 91.362614 
L 350.846847 89.992516 
L 354.756757 88.518429 
L 356.990991 87.898351 
L 358.108108 87.59467 
L 361.459459 87.068408 
L 363.135135 87.103551 
L 367.603604 87.469338 
L 368.720721 87.357261 
L 370.396396 87.07101 
L 374.864865 86.372905 
L 377.099099 86.480608 
L 381.009009 87.247457 
L 382.684685 88.032818 
L 384.918919 89.483304 
L 387.711712 91.54512 
L 389.945946 93.218757 
L 392.18018 94.859994 
L 393.297297 95.60259 
L 395.531532 97.64223 
L 398.324324 100.750514 
L 401.675676 104.517054 
L 403.351351 106.18864 
L 405.027027 107.59489 
L 406.702703 108.820739 
L 408.936937 110.675077 
L 410.612613 112.209936 
L 412.846847 114.007597 
L 417.315315 116.898889 
L 419.54955 118.081089 
L 420.666667 118.599999 
L 424.018018 119.750343 
L 426.252252 120.176338 
L 428.486486 120.874412 
L 432.396396 121.993444 
L 434.072072 122.386456 
L 435.189189 122.723044 
L 437.981982 123.880922 
L 440.216216 124.282207 
L 444.126126 125.052739 
L 446.36036 125.590606 
L 448.594595 125.942476 
L 449.711712 126.221465 
L 452.504505 127.2423 
L 454.18018 127.548092 
L 456.414414 127.959669 
L 459.765766 129.002015 
L 461.441441 129.36346 
L 463.117117 129.801611 
L 466.468468 130.349051 
L 468.144144 130.260613 
L 470.378378 130.009063 
L 473.171171 130.019116 
L 474.846847 129.91457 
L 478.198198 129.753211 
L 479.873874 130.308538 
L 482.108108 131.247982 
L 484.900901 133.035705 
L 487.135135 134.321098 
L 490.486486 136.18212 
L 493.279279 137.383632 
L 496.072072 138.612741 
L 497.747748 139.231131 
L 503.333333 141.559276 
L 506.126126 141.887049 
L 507.243243 142.074818 
L 508.918919 142.074672 
L 509.477477 141.954589 
L 511.153153 141.124442 
L 513.387387 139.945123 
L 515.621622 139.090514 
L 517.855856 138.257262 
L 520.09009 137.341988 
L 522.324324 136.714584 
L 524.558559 136.349907 
L 526.234234 135.687889 
L 529.585586 134.076478 
L 531.261261 133.441247 
L 532.378378 133.153256 
L 534.612613 132.742573 
L 535.72973 132.349015 
L 539.081081 131.020261 
L 541.315315 130.035952 
L 546.342342 127.606608 
L 549.693694 125.810856 
L 550.810811 125.507487 
L 552.486486 125.298444 
L 553.603604 125.238962 
L 555.837838 125.378706 
L 559.747748 125.961194 
L 560.864865 126.058138 
L 563.099099 126.609916 
L 565.333333 127.461599 
L 573.711712 130.221226 
L 575.945946 130.89687 
L 577.063063 131.079415 
L 581.531532 131.627575 
L 583.765766 132.182356 
L 589.351351 133.165608 
L 592.702703 134.103537 
L 597.171171 136.012311 
L 598.288288 136.459058 
L 600.522523 137.530878 
L 603.873874 139.12622 
L 604.990991 139.566849 
L 606.666667 139.860746 
L 608.342342 139.860841 
L 611.693694 139.886446 
L 612.810811 139.907082 
L 615.045045 139.586523 
L 623.423423 137.804331 
L 629.009009 137.233917 
L 632.918919 137.010844 
L 634.594595 136.93296 
L 636.27027 136.87754 
L 641.297297 136.850043 
L 644.09009 135.889289 
L 648 135.256702 
L 648 135.256702 
" style="fill:none;stroke:#ff0000;stroke-linecap:square;stroke-opacity:0.2;stroke-width:1.5;"/>
   </g>
   <g id="line2d_24">
    <path clip-path="url(#p48900d71e7)" d="M 90 128.43165 
L 91.675676 129.267918 
L 94.468468 130.756015 
L 96.702703 131.77544 
L 100.054054 132.888849 
L 101.72973 133.438039 
L 103.963964 134.285769 
L 106.756757 134.970708 
L 108.990991 135.347038 
L 111.225225 135.405567 
L 114.018018 135.047566 
L 115.693694 134.527284 
L 119.603604 133.344001 
L 121.279279 132.930554 
L 124.630631 131.705826 
L 126.306306 131.232083 
L 130.216216 129.908119 
L 131.891892 129.591614 
L 135.801802 129.511443 
L 140.828829 129.839058 
L 141.945946 130.060268 
L 144.738739 130.975969 
L 145.855856 131.118711 
L 146.972973 131.248839 
L 149.207207 132.112715 
L 150.882883 132.765107 
L 152 133.152354 
L 153.675676 133.863569 
L 160.378378 136.115712 
L 161.495495 136.471488 
L 162.612613 136.601947 
L 163.72973 136.550295 
L 164.846847 136.346614 
L 167.63964 135.500151 
L 168.756757 135.351978 
L 172.666667 135.563155 
L 173.783784 135.666401 
L 175.459459 135.588301 
L 177.135135 135.304036 
L 179.369369 134.725373 
L 180.486486 134.683017 
L 182.720721 134.880101 
L 186.072072 135.179681 
L 187.189189 135.513872 
L 191.099099 137.115642 
L 192.774775 137.570712 
L 194.45045 137.869004 
L 195.567568 137.941447 
L 196.684685 137.762154 
L 199.477477 137.135128 
L 203.945946 136.147155 
L 205.621622 135.615011 
L 211.207207 134.820179 
L 212.324324 134.82986 
L 215.117117 135.136356 
L 216.234234 135.226427 
L 217.351351 135.260577 
L 219.027027 135.495259 
L 222.378378 135.855236 
L 225.171171 135.878585 
L 226.288288 135.844165 
L 229.63964 135.302475 
L 235.783784 133.296511 
L 238.018018 132.158693 
L 239.693694 131.445851 
L 240.810811 131.286995 
L 241.927928 131.294143 
L 245.279279 131.507194 
L 249.189189 131.605525 
L 251.981982 132.358686 
L 254.774775 132.536957 
L 257.567568 132.760521 
L 262.036036 132.270815 
L 263.711712 132.143234 
L 265.945946 132.194432 
L 267.063063 131.994695 
L 270.414414 130.875742 
L 275.441441 130.199928 
L 278.234234 130.154366 
L 281.585586 129.596183 
L 282.702703 129.642195 
L 284.936937 129.794045 
L 286.612613 129.70798 
L 292.198198 129.522452 
L 295.54955 129.099244 
L 298.342342 128.250585 
L 300.018018 127.546896 
L 303.369369 126.28231 
L 305.045045 125.864111 
L 306.720721 125.552232 
L 308.396396 124.910026 
L 313.981982 122.401391 
L 316.774775 120.49873 
L 317.891892 119.303643 
L 320.126126 116.786124 
L 324.036036 113.144756 
L 326.828829 111.248868 
L 329.621622 109.737821 
L 334.09009 106.566569 
L 339.117117 102.917735 
L 342.468468 100.443648 
L 348.612613 94.666281 
L 350.288288 93.463367 
L 354.756757 90.760685 
L 355.873874 90.177136 
L 359.225225 88.041804 
L 360.342342 87.392518 
L 361.459459 86.760457 
L 364.252252 85.724604 
L 369.837838 84.410843 
L 371.513514 84.254186 
L 376.540541 84.280506 
L 377.657658 84.436783 
L 380.45045 85.207444 
L 382.126126 86.157053 
L 384.918919 87.863458 
L 389.387387 91.637357 
L 393.297297 95.644255 
L 394.972973 97.386068 
L 397.207207 99.799225 
L 399.441441 101.954973 
L 403.90991 105.986992 
L 411.72973 114.113373 
L 413.963964 116.422839 
L 415.081081 117.500925 
L 416.756757 118.749764 
L 418.432432 119.691445 
L 420.108108 120.478609 
L 422.342342 121.585729 
L 424.018018 122.335298 
L 425.135135 122.666871 
L 427.369369 122.973877 
L 440.216216 127.496303 
L 441.891892 127.976406 
L 445.801802 129.358987 
L 448.036036 129.846928 
L 451.387387 130.397621 
L 453.621622 130.685482 
L 454.738739 130.796955 
L 455.855856 131.006091 
L 458.09009 131.347489 
L 465.90991 132.988004 
L 467.585586 133.130943 
L 473.171171 132.872016 
L 475.405405 132.888277 
L 477.63964 132.785073 
L 478.756757 132.710459 
L 480.432432 132.407654 
L 482.108108 132.087971 
L 483.225225 131.88369 
L 484.900901 131.874044 
L 486.576577 132.127224 
L 488.252252 132.672276 
L 491.045045 133.647181 
L 494.396396 134.687556 
L 499.423423 135.490027 
L 504.45045 136.824157 
L 505.567568 137.199916 
L 508.918919 137.758465 
L 512.27027 137.82534 
L 516.738739 137.149667 
L 521.207207 137.589894 
L 523.441441 137.599622 
L 524.558559 137.71486 
L 529.027027 137.236801 
L 531.261261 136.440256 
L 535.72973 134.872669 
L 539.63964 133.962539 
L 541.873874 133.038993 
L 543.54955 132.223794 
L 545.783784 131.528433 
L 548.018018 131.027695 
L 550.810811 130.670805 
L 551.927928 130.859849 
L 553.603604 131.388525 
L 555.837838 132.318444 
L 559.747748 134.272649 
L 561.423423 135.064918 
L 564.774775 136.290885 
L 566.45045 136.811407 
L 568.126126 137.084034 
L 569.243243 137.209516 
L 574.828829 138.430385 
L 579.297297 138.551471 
L 581.531532 138.040146 
L 583.765766 137.098123 
L 585.441441 136.760053 
L 587.117117 136.845949 
L 589.351351 137.013596 
L 591.585586 137.162755 
L 593.261261 137.274878 
L 594.936937 137.186457 
L 599.405405 136.451976 
L 601.63964 135.773658 
L 603.315315 135.51131 
L 606.108108 135.334812 
L 610.576577 135.048212 
L 614.486486 135.292891 
L 616.720721 135.114908 
L 623.423423 134.181024 
L 625.099099 134.15872 
L 634.036036 133.491639 
L 635.711712 133.214389 
L 637.387387 132.814974 
L 639.621622 132.03584 
L 645.765766 129.234302 
L 646.882883 128.882162 
L 648 128.670118 
L 648 128.670118 
" style="fill:none;stroke:#ff0000;stroke-linecap:square;stroke-opacity:0.2;stroke-width:1.5;"/>
   </g>
   <g id="line2d_25">
    <path clip-path="url(#p48900d71e7)" d="M 90 128.733498 
L 91.675676 129.204897 
L 96.144144 129.967049 
L 97.81982 130.168716 
L 100.054054 130.659245 
L 102.846847 131.64315 
L 107.315315 132.740323 
L 110.666667 132.765667 
L 112.900901 132.76622 
L 116.252252 133.271486 
L 117.927928 133.393643 
L 122.954955 133.250981 
L 124.630631 133.338645 
L 127.423423 133.306227 
L 134.684685 133.247317 
L 137.477477 133.051114 
L 139.711712 132.918917 
L 140.828829 132.891277 
L 141.945946 132.942546 
L 143.063063 132.739276 
L 146.972973 132.420888 
L 149.765766 132.114035 
L 154.234234 132.607343 
L 155.351351 132.76813 
L 156.468468 132.690066 
L 158.144144 132.425457 
L 160.936937 131.672001 
L 162.612613 131.748866 
L 164.288288 132.027785 
L 165.963964 132.396188 
L 167.081081 132.588554 
L 168.756757 132.630453 
L 172.666667 132.298112 
L 174.342342 132.2637 
L 179.927928 133.098474 
L 181.045045 133.226111 
L 184.396396 133.880221 
L 187.747748 134.3411 
L 189.423423 134.731174 
L 191.099099 135.117077 
L 193.333333 135.665721 
L 201.153153 136.168287 
L 202.828829 136.179485 
L 204.504505 136.166877 
L 205.621622 135.994329 
L 207.855856 135.553713 
L 212.882883 135.254025 
L 214.558559 135.368727 
L 216.234234 135.176749 
L 219.585586 134.599598 
L 221.261261 134.42247 
L 226.288288 133.606495 
L 228.522523 133.382641 
L 231.873874 132.545123 
L 233.54955 132.140267 
L 236.342342 131.548889 
L 238.576577 130.992477 
L 239.693694 130.865185 
L 243.603604 131.141547 
L 245.837838 131.61538 
L 250.306306 132.59553 
L 251.423423 132.666075 
L 254.216216 132.796742 
L 255.333333 132.968756 
L 259.243243 132.914088 
L 260.918919 133.107845 
L 263.153153 133.009717 
L 264.828829 132.684539 
L 266.504505 132.541717 
L 267.621622 132.34977 
L 269.855856 132.261919 
L 271.531532 132.182214 
L 273.765766 131.999216 
L 275.441441 131.932136 
L 279.90991 131.163617 
L 282.702703 130.349703 
L 284.378378 129.820268 
L 286.054054 129.530196 
L 292.756757 128.489655 
L 294.432432 127.858672 
L 295.54955 127.504979 
L 300.576577 126.623814 
L 305.045045 126.280444 
L 306.162162 126.118125 
L 309.513514 125.081717 
L 315.099099 124.420479 
L 316.216216 124.300596 
L 317.333333 123.872354 
L 319.567568 122.616597 
L 321.801802 121.047705 
L 322.918919 120.240197 
L 324.594595 119.198044 
L 331.855856 113.785498 
L 333.531532 112.699785 
L 335.207207 111.227349 
L 338 108.260657 
L 340.234234 105.963073 
L 342.468468 103.71768 
L 346.378378 99.533476 
L 352.522523 91.724177 
L 353.63964 90.56028 
L 359.783784 84.792872 
L 361.459459 83.776183 
L 365.927928 81.67206 
L 367.603604 81.105404 
L 368.720721 80.900058 
L 372.072072 80.681728 
L 374.306306 81.16883 
L 380.45045 83.653268 
L 382.126126 84.511896 
L 383.801802 85.697175 
L 386.036036 87.609523 
L 387.153153 88.68839 
L 391.621622 93.87266 
L 396.648649 98.623417 
L 400.558559 102.833027 
L 404.468468 107.48749 
L 410.054054 112.688695 
L 416.756757 118.23218 
L 418.432432 119.349267 
L 422.342342 121.323738 
L 427.369369 123.790765 
L 430.162162 124.93932 
L 431.837838 125.460826 
L 433.513514 126.020101 
L 436.306306 127.069381 
L 439.099099 127.788426 
L 442.45045 129.002217 
L 444.684685 129.88058 
L 446.918919 130.611117 
L 448.594595 130.936724 
L 452.504505 131.322882 
L 454.738739 131.84107 
L 455.855856 131.945945 
L 458.09009 131.939636 
L 460.882883 132.349392 
L 463.117117 132.277051 
L 464.234234 132.139502 
L 465.351351 131.930447 
L 466.468468 131.990494 
L 467.585586 132.280839 
L 469.81982 132.850596 
L 471.495495 133.27087 
L 474.288288 134.343925 
L 475.405405 134.574969 
L 477.081081 134.652692 
L 478.756757 134.538248 
L 479.873874 134.578974 
L 484.342342 135.497934 
L 489.927928 136.856842 
L 491.045045 137.147328 
L 492.720721 137.310655 
L 493.837838 137.302901 
L 494.954955 137.432695 
L 498.306306 137.491677 
L 499.981982 137.317438 
L 506.126126 136.183679 
L 509.477477 135.379794 
L 510.594595 135.183107 
L 513.945946 134.896831 
L 515.621622 134.765001 
L 517.297297 134.797843 
L 522.324324 135.312722 
L 524 135.141905 
L 525.675676 134.721318 
L 529.585586 133.231841 
L 530.702703 132.941635 
L 532.378378 132.418503 
L 534.612613 131.80437 
L 536.288288 131.16568 
L 540.198198 129.534264 
L 542.432432 128.994532 
L 552.486486 128.176824 
L 553.603604 128.201771 
L 555.279279 128.48929 
L 558.630631 129.597791 
L 560.864865 130.365466 
L 564.774775 131.429778 
L 568.684685 131.967416 
L 572.036036 132.489701 
L 576.504505 132.207499 
L 578.738739 132.13777 
L 580.972973 131.792752 
L 582.648649 131.326571 
L 587.117117 130.013633 
L 588.234234 129.838577 
L 590.468468 129.935326 
L 591.585586 130.218349 
L 596.054054 131.786401 
L 601.081081 134.231168 
L 602.756757 134.903604 
L 610.018018 138.28506 
L 611.693694 138.838894 
L 613.927928 139.784755 
L 615.045045 140.084143 
L 618.954955 140.685626 
L 620.072072 140.581189 
L 621.747748 140.088484 
L 623.981982 139.232827 
L 625.099099 138.860005 
L 627.333333 138.283149 
L 630.126126 137.41925 
L 632.36036 136.868425 
L 634.036036 136.124628 
L 639.063063 133.581651 
L 641.297297 132.782475 
L 644.648649 131.646266 
L 646.882883 131.269569 
L 648 131.025061 
L 648 131.025061 
" style="fill:none;stroke:#ff0000;stroke-linecap:square;stroke-opacity:0.2;stroke-width:1.5;"/>
   </g>
   <g id="line2d_26">
    <path clip-path="url(#p48900d71e7)" d="M 90 129.30978 
L 91.675676 129.184705 
L 93.351351 129.076285 
L 95.027027 128.887633 
L 96.144144 128.965372 
L 100.612613 129.787864 
L 102.846847 130.36918 
L 104.522523 131.033558 
L 108.432432 132.420636 
L 115.693694 134.46611 
L 117.369369 134.578047 
L 121.279279 134.728424 
L 122.954955 134.989731 
L 125.189189 135.144385 
L 126.306306 135.332148 
L 127.981982 135.418459 
L 133.567568 135.262976 
L 138.036036 135.461954 
L 139.153153 135.547557 
L 140.828829 135.313646 
L 152 133.2713 
L 153.675676 133.404416 
L 155.90991 134.02108 
L 157.585586 134.331204 
L 159.261261 134.423836 
L 162.612613 134.658642 
L 164.846847 134.816478 
L 168.198198 135.035508 
L 170.990991 135.159107 
L 173.783784 135.103482 
L 176.018018 134.839195 
L 177.135135 134.534517 
L 178.810811 133.937632 
L 180.486486 133.579519 
L 182.162162 133.518327 
L 184.396396 133.525502 
L 185.513514 133.392374 
L 188.306306 133.387206 
L 190.540541 133.068263 
L 193.891892 132.489842 
L 195.567568 132.519241 
L 200.594595 132.648836 
L 202.27027 132.678901 
L 203.387387 132.693786 
L 206.18018 132.392072 
L 208.972973 131.988505 
L 211.207207 131.981409 
L 213.441441 132.262187 
L 220.144144 132.622725 
L 222.378378 132.790093 
L 225.72973 132.634741 
L 227.405405 132.594696 
L 235.225225 132.776168 
L 237.459459 132.558467 
L 241.369369 132.050323 
L 245.837838 131.972588 
L 247.513514 131.632532 
L 251.423423 130.543908 
L 252.540541 130.432218 
L 255.333333 129.752241 
L 257.009009 129.323289 
L 259.801802 129.017633 
L 266.504505 129.286461 
L 268.18018 129.55983 
L 269.855856 129.475237 
L 271.531532 129.384426 
L 274.882883 129.509469 
L 276 129.68032 
L 278.792793 129.770282 
L 284.378378 129.061645 
L 287.72973 128.92766 
L 292.198198 128.632407 
L 294.432432 128.231387 
L 296.108108 127.699457 
L 298.900901 126.527781 
L 300.576577 126.124687 
L 302.252252 125.766858 
L 303.927928 125.306336 
L 306.162162 124.901804 
L 310.072072 124.068912 
L 313.423423 123.408809 
L 315.657658 122.311226 
L 317.891892 121.026633 
L 323.477477 116.996213 
L 325.153153 115.653168 
L 331.297297 111.554016 
L 334.09009 109.427884 
L 339.117117 104.84672 
L 341.351351 103.338717 
L 345.81982 99.911732 
L 348.612613 97.063522 
L 350.846847 94.756661 
L 353.081081 92.845666 
L 355.315315 91.283245 
L 356.432432 90.597738 
L 365.369369 84.364226 
L 366.486486 83.827107 
L 369.279279 82.843447 
L 373.189189 82.182801 
L 375.981982 82.442937 
L 378.774775 83.299363 
L 379.891892 83.657671 
L 381.009009 84.204561 
L 383.243243 85.784974 
L 384.918919 87.079291 
L 388.828829 90.590244 
L 394.414414 96.047545 
L 397.765766 98.914011 
L 403.351351 104.000943 
L 406.702703 106.467675 
L 408.378378 107.584165 
L 410.612613 109.170239 
L 412.846847 110.738874 
L 413.963964 111.398906 
L 418.432432 113.052941 
L 420.108108 113.322883 
L 421.783784 113.630533 
L 424.576577 114.047592 
L 426.810811 114.790463 
L 430.162162 116.044754 
L 431.279279 116.560426 
L 434.072072 118.284456 
L 437.981982 121.04825 
L 439.657658 122.188726 
L 442.45045 123.64178 
L 448.036036 126.139656 
L 449.711712 127.118959 
L 451.387387 127.907316 
L 454.738739 129.678925 
L 456.414414 130.184509 
L 459.765766 131.161787 
L 463.675676 131.678291 
L 469.261261 132.214105 
L 472.054054 132.06189 
L 485.459459 131.051923 
L 488.810811 130.940941 
L 492.162162 131.212941 
L 495.513514 131.129052 
L 498.864865 131.622803 
L 501.099099 132.173614 
L 503.333333 132.80794 
L 505.567568 133.399466 
L 507.243243 133.769532 
L 511.153153 134.518468 
L 513.945946 135.43831 
L 515.063063 135.790027 
L 518.414414 136.422103 
L 521.207207 136.429119 
L 522.324324 136.638445 
L 524 137.043914 
L 526.234234 137.359458 
L 527.90991 137.376597 
L 530.144144 137.338421 
L 533.495495 137.476383 
L 539.081081 136.65712 
L 540.756757 136.412173 
L 549.135135 136.011413 
L 550.810811 135.773274 
L 554.720721 135.330094 
L 556.396396 134.987252 
L 560.864865 134.005375 
L 563.657658 133.725131 
L 565.333333 133.764005 
L 570.918919 134.390575 
L 576.504505 134.475558 
L 579.297297 134.832551 
L 580.972973 134.996973 
L 584.324324 135.64711 
L 589.351351 136.710394 
L 592.144144 136.931951 
L 598.846847 136.71408 
L 601.081081 137.170815 
L 606.108108 138.106158 
L 608.900901 138.55765 
L 610.018018 138.797686 
L 614.486486 140.043397 
L 616.162162 140.060982 
L 619.513514 139.877583 
L 623.981982 139.263219 
L 627.333333 138.96097 
L 631.243243 138.831228 
L 635.153153 138.025868 
L 636.828829 137.321997 
L 638.504505 136.703387 
L 645.765766 134.185314 
L 646.882883 133.978901 
L 648 133.842263 
L 648 133.842263 
" style="fill:none;stroke:#ff0000;stroke-linecap:square;stroke-opacity:0.2;stroke-width:1.5;"/>
   </g>
   <g id="line2d_27">
    <path clip-path="url(#p48900d71e7)" d="M 90 131.514801 
L 92.234234 131.314935 
L 93.90991 131.209709 
L 98.378378 130.409808 
L 100.612613 129.92313 
L 101.72973 129.998885 
L 102.846847 130.103602 
L 105.081081 130.063725 
L 107.315315 130.14334 
L 109.54955 129.955248 
L 111.783784 129.935419 
L 112.900901 129.895881 
L 118.486486 129.449388 
L 119.603604 129.594656 
L 124.630631 130.89193 
L 125.747748 130.984068 
L 127.423423 131.32143 
L 130.774775 131.963432 
L 132.45045 132.27418 
L 135.243243 132.503214 
L 137.477477 132.621392 
L 141.387387 132.530973 
L 142.504505 132.386593 
L 144.18018 131.95863 
L 146.414414 131.302032 
L 148.09009 130.875423 
L 150.882883 130.272686 
L 157.027027 128.910536 
L 158.702703 128.691217 
L 159.81982 128.737773 
L 164.846847 129.589612 
L 167.081081 130.246068 
L 168.756757 130.509348 
L 171.54955 130.941627 
L 173.783784 131.714532 
L 177.693694 133.319361 
L 179.927928 133.782807 
L 183.279279 134.302349 
L 186.630631 134.505376 
L 188.864865 134.3683 
L 192.216216 133.851178 
L 195.009009 133.555963 
L 196.126126 133.435322 
L 199.477477 132.532778 
L 201.153153 132.118077 
L 202.828829 131.731631 
L 204.504505 131.128398 
L 205.621622 130.74758 
L 207.297297 130.465206 
L 211.765766 130.163085 
L 214 130.011217 
L 216.792793 130.090023 
L 217.90991 130.160869 
L 221.261261 130.732568 
L 224.054054 131.138479 
L 226.846847 130.885315 
L 230.198198 131.19099 
L 231.315315 131.291973 
L 232.990991 131.355442 
L 236.342342 131.837465 
L 237.459459 131.826196 
L 238.576577 131.626806 
L 242.486486 130.554318 
L 245.279279 130.444909 
L 247.513514 130.450827 
L 249.189189 130.540527 
L 250.864865 130.472338 
L 252.540541 130.795825 
L 254.774775 131.200123 
L 259.243243 131.601704 
L 263.153153 131.689182 
L 265.945946 132.043467 
L 268.738739 131.947486 
L 272.648649 132.517289 
L 274.324324 132.342427 
L 276 132.113291 
L 277.117117 131.943003 
L 278.792793 131.416714 
L 281.585586 130.290918 
L 283.261261 129.55598 
L 284.936937 129.075565 
L 286.612613 128.578365 
L 289.405405 127.667468 
L 293.873874 126.72952 
L 299.459459 125.039285 
L 304.486486 123.899274 
L 307.837838 123.415511 
L 311.189189 122.421428 
L 312.864865 122.019379 
L 314.540541 121.316037 
L 319.567568 118.561769 
L 322.918919 116.141752 
L 324.594595 114.910801 
L 329.063063 112.124486 
L 330.738739 111.080381 
L 336.324324 108.205477 
L 338.558559 107.081231 
L 340.234234 105.904165 
L 343.027027 103.536242 
L 347.495495 99.453105 
L 350.288288 96.549025 
L 354.198198 92.145402 
L 355.873874 90.58144 
L 357.54955 89.255863 
L 359.783784 87.964321 
L 363.135135 86.096989 
L 365.927928 85.061459 
L 368.720721 84.639133 
L 372.630631 84.546387 
L 374.864865 84.786224 
L 377.657658 85.502396 
L 381.009009 87.176316 
L 383.243243 88.895224 
L 384.918919 90.174229 
L 388.27027 92.132108 
L 389.945946 93.218413 
L 392.738739 95.464701 
L 396.09009 98.604007 
L 397.207207 99.607924 
L 399.441441 101.291376 
L 407.261261 107.368725 
L 410.612613 109.617166 
L 414.522523 113.063144 
L 418.990991 117.125326 
L 420.666667 118.363566 
L 422.900901 119.751902 
L 425.693694 121.245791 
L 428.486486 122.992656 
L 430.720721 124.21828 
L 435.189189 126.811888 
L 436.864865 127.464071 
L 440.774775 128.679714 
L 441.891892 128.896654 
L 444.684685 129.067647 
L 450.27027 128.628451 
L 451.945946 128.661882 
L 455.297297 128.52983 
L 456.972973 128.552636 
L 459.765766 129.084442 
L 464.792793 130.043991 
L 472.054054 130.503606 
L 473.72973 130.853373 
L 475.963964 131.703712 
L 477.63964 132.618081 
L 480.990991 134.62399 
L 482.666667 135.455253 
L 487.693694 137.140085 
L 491.603604 138.179456 
L 494.954955 138.466618 
L 500.540541 139.41198 
L 503.333333 140.21283 
L 507.801802 141.13524 
L 509.477477 141.142562 
L 511.711712 140.970403 
L 514.504505 140.976822 
L 521.207207 140.690106 
L 522.882883 140.30102 
L 525.117117 139.726876 
L 527.351351 138.858839 
L 529.027027 138.224785 
L 531.261261 137.513169 
L 532.936937 136.787702 
L 534.612613 136.420787 
L 536.288288 136.087098 
L 539.63964 135.710803 
L 541.873874 135.482648 
L 543.54955 135.310612 
L 547.459459 135.076985 
L 553.045045 133.972556 
L 555.279279 133.442725 
L 556.954955 132.979872 
L 558.072072 132.627182 
L 559.189189 132.416728 
L 560.306306 132.335832 
L 563.099099 131.857312 
L 564.774775 131.59211 
L 568.126126 130.735779 
L 570.36036 130.125427 
L 572.594595 129.822273 
L 574.828829 129.647399 
L 578.738739 130.048272 
L 586 131.973539 
L 592.144144 133.043064 
L 597.171171 133.603028 
L 601.63964 134.479937 
L 603.315315 134.652162 
L 608.900901 135.599544 
L 610.018018 135.677979 
L 611.693694 135.726457 
L 614.486486 135.975603 
L 616.720721 136.235772 
L 618.954955 135.954535 
L 622.306306 135.349009 
L 623.981982 135.259767 
L 628.45045 135.366201 
L 631.243243 135.662094 
L 632.918919 136.065533 
L 635.711712 136.502911 
L 639.621622 136.47093 
L 641.297297 136.238647 
L 644.09009 135.367973 
L 646.324324 134.3553 
L 647.441441 133.969873 
L 648 133.832291 
L 648 133.832291 
" style="fill:none;stroke:#ff0000;stroke-linecap:square;stroke-opacity:0.2;stroke-width:1.5;"/>
   </g>
   <g id="line2d_28">
    <path clip-path="url(#p48900d71e7)" d="M 90 125.10033 
L 94.468468 127.396409 
L 96.144144 127.907436 
L 101.72973 129.581298 
L 102.846847 130.039824 
L 110.108108 131.657999 
L 112.900901 131.701058 
L 114.576577 131.736576 
L 116.252252 131.893242 
L 117.927928 131.990257 
L 119.603604 131.879729 
L 121.279279 132.023513 
L 122.396396 132.14731 
L 125.747748 132.267594 
L 127.423423 132.325798 
L 131.333333 132.110736 
L 135.243243 131.151426 
L 137.477477 130.806306 
L 138.594595 130.817457 
L 147.531532 131.384755 
L 149.765766 131.511849 
L 152 131.794109 
L 153.675676 131.985159 
L 155.351351 132.168753 
L 159.261261 132.123663 
L 162.612613 132.61483 
L 164.288288 133.103967 
L 168.198198 134.56331 
L 171.54955 135.090797 
L 173.225225 135.550097 
L 174.900901 135.786567 
L 179.927928 136.187372 
L 192.774775 135.224172 
L 195.009009 135.421979 
L 202.27027 136.347024 
L 208.972973 136.411236 
L 211.207207 136.683467 
L 215.117117 137.050232 
L 219.585586 136.718283 
L 222.378378 137.227983 
L 224.054054 137.418126 
L 228.522523 138.190331 
L 230.198198 138.204228 
L 232.432432 137.958658 
L 234.666667 137.720485 
L 238.018018 137.056071 
L 240.252252 136.540467 
L 242.486486 135.788425 
L 245.837838 134.823211 
L 253.099099 133.673033 
L 254.774775 133.377535 
L 260.918919 132.962725 
L 264.27027 132.533618 
L 266.504505 132.572505 
L 268.18018 132.452551 
L 271.531532 131.821211 
L 274.882883 130.998415 
L 278.234234 130.424105 
L 281.585586 129.797969 
L 283.81982 129.306945 
L 284.936937 128.9972 
L 287.72973 127.973979 
L 289.405405 127.549896 
L 291.081081 127.147048 
L 295.54955 125.682758 
L 296.666667 125.118487 
L 301.135135 122.300037 
L 302.810811 121.592066 
L 305.045045 120.835667 
L 307.279279 120.132149 
L 308.396396 119.895554 
L 314.540541 118.174715 
L 316.216216 117.520543 
L 317.891892 116.644764 
L 320.126126 115.317058 
L 322.918919 113.298604 
L 324.594595 112.113068 
L 326.828829 110.710885 
L 330.738739 108.666126 
L 333.531532 106.881679 
L 335.207207 105.523687 
L 337.441441 103.301757 
L 339.675676 101.021224 
L 341.351351 99.526287 
L 347.495495 93.222775 
L 350.288288 90.838374 
L 355.315315 87.057744 
L 358.666667 84.392771 
L 360.342342 83.226369 
L 362.018018 82.19551 
L 363.693694 81.652269 
L 365.369369 81.21569 
L 367.603604 80.902317 
L 368.720721 80.723817 
L 369.837838 80.80551 
L 372.630631 81.217247 
L 373.747748 81.431298 
L 374.864865 81.812993 
L 377.657658 83.119154 
L 380.45045 84.84772 
L 382.126126 86.27229 
L 386.036036 89.936135 
L 389.945946 93.347336 
L 391.621622 95.085072 
L 394.972973 99.076004 
L 396.648649 101.099438 
L 400.558559 105.66719 
L 402.234234 107.514447 
L 406.702703 111.614585 
L 410.054054 114.085063 
L 413.405405 116.050168 
L 414.522523 116.541378 
L 417.873874 117.928697 
L 420.108108 118.886104 
L 424.018018 120.572249 
L 430.162162 122.680714 
L 435.747748 123.438037 
L 437.981982 123.832408 
L 440.216216 124.106324 
L 444.126126 124.996749 
L 448.036036 126.239195 
L 449.153153 126.415648 
L 455.855856 128.333589 
L 457.531532 129.254088 
L 459.207207 130.427186 
L 460.882883 131.337027 
L 468.144144 134.720575 
L 469.81982 135.249098 
L 471.495495 135.654846 
L 473.72973 135.944857 
L 475.963964 136.34164 
L 479.315315 137.257269 
L 480.432432 137.541386 
L 482.666667 137.837196 
L 485.459459 138.1999 
L 486.576577 138.369701 
L 488.252252 138.334977 
L 490.486486 138.232451 
L 492.162162 138.337195 
L 493.837838 138.20164 
L 496.630631 137.911211 
L 502.774775 137.767231 
L 508.36036 136.87567 
L 510.594595 136.755932 
L 516.738739 136.728238 
L 520.09009 136.363724 
L 522.882883 135.703328 
L 524 135.402554 
L 525.675676 135.248267 
L 528.468468 135.000057 
L 530.144144 134.705071 
L 537.963964 133.754474 
L 541.315315 133.745673 
L 543.54955 134.032145 
L 548.576577 134.592932 
L 550.252252 134.477316 
L 553.603604 134.161624 
L 557.513514 134.018289 
L 559.189189 133.724601 
L 562.540541 132.632858 
L 566.45045 131.569466 
L 568.126126 131.2725 
L 569.801802 131.185675 
L 573.153153 131.086661 
L 575.945946 131.020737 
L 577.621622 131.151544 
L 582.09009 132.014905 
L 584.324324 132.310718 
L 592.144144 133.651444 
L 596.612613 134.147969 
L 598.288288 134.536019 
L 602.756757 135.80514 
L 604.990991 136.722253 
L 606.108108 137.262995 
L 607.225225 137.564604 
L 610.018018 138.006472 
L 614.486486 138.602396 
L 615.603604 138.509468 
L 617.837838 138.252172 
L 621.747748 138.257011 
L 628.45045 138.83919 
L 630.684685 138.79898 
L 637.387387 138.380588 
L 639.063063 138.048114 
L 640.738739 137.447075 
L 642.414414 136.896565 
L 646.324324 135.732447 
L 647.441441 135.033351 
L 648 134.606275 
L 648 134.606275 
" style="fill:none;stroke:#ff0000;stroke-linecap:square;stroke-opacity:0.2;stroke-width:1.5;"/>
   </g>
   <g id="patch_3">
    <path d="M 90 384.48 
L 90 51.84 
" style="fill:none;stroke:#000000;stroke-linecap:square;stroke-linejoin:miter;stroke-width:0.8;"/>
   </g>
   <g id="patch_4">
    <path d="M 648 384.48 
L 648 51.84 
" style="fill:none;stroke:#000000;stroke-linecap:square;stroke-linejoin:miter;stroke-width:0.8;"/>
   </g>
   <g id="patch_5">
    <path d="M 90 384.48 
L 648 384.48 
" style="fill:none;stroke:#000000;stroke-linecap:square;stroke-linejoin:miter;stroke-width:0.8;"/>
   </g>
   <g id="patch_6">
    <path d="M 90 51.84 
L 648 51.84 
" style="fill:none;stroke:#000000;stroke-linecap:square;stroke-linejoin:miter;stroke-width:0.8;"/>
   </g>
  </g>
 </g>
 <defs>
  <clipPath id="p48900d71e7">
   <rect height="332.64" width="558" x="90" y="51.84"/>
  </clipPath>
 </defs>
</svg>
